M48
;DRILL file {KiCad 5.0.0-rc2-be01b52~65~ubuntu18.04.1} date Mon Jun 11 23:06:06 2018
;FORMAT={-:-/ absolute / metric / decimal}
FMAT,2
METRIC,TZ
T1C0.400
T2C1.000
%
G90
G05
M71
T1
X114.332Y-78.658
X122.434Y-71.803
X122.654Y-68.965
X123.07Y-60.618
X125.891Y-66.026
X126.685Y-70.367
X127.641Y-69.487
X128.915Y-69.496
X129.915Y-69.461
X131.371Y-61.053
X132.974Y-54.692
X136.426Y-61.595
X136.477Y-53.639
X136.701Y-63.072
X137.799Y-69.154
X137.874Y-71.878
X138.184Y-64.549
X138.945Y-72.875
X138.978Y-65.638
X139.208Y-78.15
X140.471Y-53.725
X141.036Y-74.402
T2
X115.57Y-52.07
X118.11Y-52.07
X120.65Y-52.07
X123.19Y-52.07
X125.73Y-52.07
T0
M30
