G04 #@! TF.GenerationSoftware,KiCad,Pcbnew,5.0.0-rc2-be01b52~65~ubuntu18.04.1*
G04 #@! TF.CreationDate,2018-06-11T23:06:02+04:00*
G04 #@! TF.ProjectId,interface2_cartridge,696E74657266616365325F6361727472,rev?*
G04 #@! TF.SameCoordinates,Original*
G04 #@! TF.FileFunction,Legend,Top*
G04 #@! TF.FilePolarity,Positive*
%FSLAX46Y46*%
G04 Gerber Fmt 4.6, Leading zero omitted, Abs format (unit mm)*
G04 Created by KiCad (PCBNEW 5.0.0-rc2-be01b52~65~ubuntu18.04.1) date Mon Jun 11 23:06:02 2018*
%MOMM*%
%LPD*%
G01*
G04 APERTURE LIST*
%ADD10C,0.150000*%
%ADD11C,0.120000*%
%ADD12C,0.100000*%
G04 APERTURE END LIST*
D10*
X149860000Y-74930000D02*
X114300000Y-74930000D01*
D11*
G04 #@! TO.C,D1*
X142765000Y-72085000D02*
X142765000Y-68185000D01*
X142765000Y-68185000D02*
X140445000Y-68185000D01*
X140445000Y-68185000D02*
X140445000Y-72085000D01*
G04 #@! TO.C,D2*
X143620000Y-68185000D02*
X143620000Y-72085000D01*
X145940000Y-68185000D02*
X143620000Y-68185000D01*
X145940000Y-72085000D02*
X145940000Y-68185000D01*
G04 #@! TO.C,D3*
X148988000Y-72148500D02*
X148988000Y-68248500D01*
X148988000Y-68248500D02*
X146668000Y-68248500D01*
X146668000Y-68248500D02*
X146668000Y-72148500D01*
G04 #@! TO.C,JP14*
X134320000Y-55390000D02*
G75*
G02X133620000Y-54690000I0J700000D01*
G01*
X135620000Y-54690000D02*
G75*
G02X134920000Y-55390000I-700000J0D01*
G01*
X134920000Y-51290000D02*
G75*
G02X135620000Y-51990000I0J-700000D01*
G01*
X133620000Y-51990000D02*
G75*
G02X134320000Y-51290000I700000J0D01*
G01*
X133620000Y-54740000D02*
X133620000Y-51940000D01*
X134320000Y-51290000D02*
X134920000Y-51290000D01*
X135620000Y-51940000D02*
X135620000Y-54740000D01*
X134920000Y-55390000D02*
X134320000Y-55390000D01*
X135820000Y-54540000D02*
X136120000Y-54840000D01*
X136120000Y-54840000D02*
X136120000Y-54240000D01*
X135820000Y-54540000D02*
X136120000Y-54240000D01*
G04 #@! TO.C,JP15*
X139630000Y-54540000D02*
X139930000Y-54240000D01*
X139930000Y-54840000D02*
X139930000Y-54240000D01*
X139630000Y-54540000D02*
X139930000Y-54840000D01*
X138730000Y-55390000D02*
X138130000Y-55390000D01*
X139430000Y-51940000D02*
X139430000Y-54740000D01*
X138130000Y-51290000D02*
X138730000Y-51290000D01*
X137430000Y-54740000D02*
X137430000Y-51940000D01*
X137430000Y-51990000D02*
G75*
G02X138130000Y-51290000I700000J0D01*
G01*
X138730000Y-51290000D02*
G75*
G02X139430000Y-51990000I0J-700000D01*
G01*
X139430000Y-54690000D02*
G75*
G02X138730000Y-55390000I-700000J0D01*
G01*
X138130000Y-55390000D02*
G75*
G02X137430000Y-54690000I0J700000D01*
G01*
G04 #@! TO.C,JP16*
X143440000Y-54540000D02*
X143740000Y-54240000D01*
X143740000Y-54840000D02*
X143740000Y-54240000D01*
X143440000Y-54540000D02*
X143740000Y-54840000D01*
X142540000Y-55390000D02*
X141940000Y-55390000D01*
X143240000Y-51940000D02*
X143240000Y-54740000D01*
X141940000Y-51290000D02*
X142540000Y-51290000D01*
X141240000Y-54740000D02*
X141240000Y-51940000D01*
X141240000Y-51990000D02*
G75*
G02X141940000Y-51290000I700000J0D01*
G01*
X142540000Y-51290000D02*
G75*
G02X143240000Y-51990000I0J-700000D01*
G01*
X143240000Y-54690000D02*
G75*
G02X142540000Y-55390000I-700000J0D01*
G01*
X141940000Y-55390000D02*
G75*
G02X141240000Y-54690000I0J700000D01*
G01*
G04 #@! TO.C,R1*
X140695000Y-66055000D02*
X140695000Y-64755000D01*
X142515000Y-66055000D02*
X142515000Y-64755000D01*
D12*
G04 #@! TO.C,U1*
X124755000Y-58335000D02*
X124255000Y-58335000D01*
X124255000Y-58335000D02*
X123105000Y-59485000D01*
X123105000Y-59485000D02*
X123105000Y-59985000D01*
X134325000Y-58335000D02*
X135975000Y-58335000D01*
X135975000Y-58335000D02*
X135975000Y-59985000D01*
X124755000Y-73745000D02*
X123105000Y-73745000D01*
X123105000Y-73745000D02*
X123105000Y-72095000D01*
X134325000Y-73745000D02*
X135975000Y-73745000D01*
X135975000Y-73745000D02*
X135975000Y-72095000D01*
D11*
G04 #@! TO.C,J2*
X127060000Y-53400000D02*
X127060000Y-50740000D01*
X116840000Y-53400000D02*
X127060000Y-53400000D01*
X116840000Y-50740000D02*
X127060000Y-50740000D01*
X116840000Y-53400000D02*
X116840000Y-50740000D01*
X115570000Y-53400000D02*
X114240000Y-53400000D01*
X114240000Y-53400000D02*
X114240000Y-52070000D01*
G04 #@! TO.C,JPOE1*
X118610000Y-62500000D02*
X120010000Y-62500000D01*
X120710000Y-63200000D02*
X120710000Y-63800000D01*
X120010000Y-64500000D02*
X118610000Y-64500000D01*
X117910000Y-63800000D02*
X117910000Y-63200000D01*
X117910000Y-63200000D02*
G75*
G02X118610000Y-62500000I700000J0D01*
G01*
X118610000Y-64500000D02*
G75*
G02X117910000Y-63800000I0J700000D01*
G01*
X120710000Y-63800000D02*
G75*
G02X120010000Y-64500000I-700000J0D01*
G01*
X120010000Y-62500000D02*
G75*
G02X120710000Y-63200000I0J-700000D01*
G01*
G04 #@! TO.C,JPWR1*
X118680000Y-68310000D02*
G75*
G02X117980000Y-67610000I0J700000D01*
G01*
X117980000Y-67010000D02*
G75*
G02X118680000Y-66310000I700000J0D01*
G01*
X120080000Y-66310000D02*
G75*
G02X120780000Y-67010000I0J-700000D01*
G01*
X120780000Y-67610000D02*
G75*
G02X120080000Y-68310000I-700000J0D01*
G01*
X120780000Y-67010000D02*
X120780000Y-67610000D01*
X118680000Y-66310000D02*
X120080000Y-66310000D01*
X117980000Y-67610000D02*
X117980000Y-67010000D01*
X120080000Y-68310000D02*
X118680000Y-68310000D01*
G04 #@! TO.C,JPCE1*
X120080000Y-70120000D02*
G75*
G02X120780000Y-70820000I0J-700000D01*
G01*
X120780000Y-71420000D02*
G75*
G02X120080000Y-72120000I-700000J0D01*
G01*
X118680000Y-72120000D02*
G75*
G02X117980000Y-71420000I0J700000D01*
G01*
X117980000Y-70820000D02*
G75*
G02X118680000Y-70120000I700000J0D01*
G01*
X117980000Y-71420000D02*
X117980000Y-70820000D01*
X120080000Y-72120000D02*
X118680000Y-72120000D01*
X120780000Y-70820000D02*
X120780000Y-71420000D01*
X118680000Y-70120000D02*
X120080000Y-70120000D01*
G04 #@! TO.C,D1*
D10*
X142057380Y-74398095D02*
X141057380Y-74398095D01*
X141057380Y-74160000D01*
X141105000Y-74017142D01*
X141200238Y-73921904D01*
X141295476Y-73874285D01*
X141485952Y-73826666D01*
X141628809Y-73826666D01*
X141819285Y-73874285D01*
X141914523Y-73921904D01*
X142009761Y-74017142D01*
X142057380Y-74160000D01*
X142057380Y-74398095D01*
X142057380Y-72874285D02*
X142057380Y-73445714D01*
X142057380Y-73160000D02*
X141057380Y-73160000D01*
X141200238Y-73255238D01*
X141295476Y-73350476D01*
X141343095Y-73445714D01*
G04 #@! TO.C,D2*
X145232380Y-74398095D02*
X144232380Y-74398095D01*
X144232380Y-74160000D01*
X144280000Y-74017142D01*
X144375238Y-73921904D01*
X144470476Y-73874285D01*
X144660952Y-73826666D01*
X144803809Y-73826666D01*
X144994285Y-73874285D01*
X145089523Y-73921904D01*
X145184761Y-74017142D01*
X145232380Y-74160000D01*
X145232380Y-74398095D01*
X144327619Y-73445714D02*
X144280000Y-73398095D01*
X144232380Y-73302857D01*
X144232380Y-73064761D01*
X144280000Y-72969523D01*
X144327619Y-72921904D01*
X144422857Y-72874285D01*
X144518095Y-72874285D01*
X144660952Y-72921904D01*
X145232380Y-73493333D01*
X145232380Y-72874285D01*
G04 #@! TO.C,D3*
X148407380Y-74398095D02*
X147407380Y-74398095D01*
X147407380Y-74160000D01*
X147455000Y-74017142D01*
X147550238Y-73921904D01*
X147645476Y-73874285D01*
X147835952Y-73826666D01*
X147978809Y-73826666D01*
X148169285Y-73874285D01*
X148264523Y-73921904D01*
X148359761Y-74017142D01*
X148407380Y-74160000D01*
X148407380Y-74398095D01*
X147407380Y-73493333D02*
X147407380Y-72874285D01*
X147788333Y-73207619D01*
X147788333Y-73064761D01*
X147835952Y-72969523D01*
X147883571Y-72921904D01*
X147978809Y-72874285D01*
X148216904Y-72874285D01*
X148312142Y-72921904D01*
X148359761Y-72969523D01*
X148407380Y-73064761D01*
X148407380Y-73350476D01*
X148359761Y-73445714D01*
X148312142Y-73493333D01*
G04 #@! TO.C,JP14*
X132675476Y-55967380D02*
X132675476Y-56681666D01*
X132627857Y-56824523D01*
X132532619Y-56919761D01*
X132389761Y-56967380D01*
X132294523Y-56967380D01*
X133151666Y-56967380D02*
X133151666Y-55967380D01*
X133532619Y-55967380D01*
X133627857Y-56015000D01*
X133675476Y-56062619D01*
X133723095Y-56157857D01*
X133723095Y-56300714D01*
X133675476Y-56395952D01*
X133627857Y-56443571D01*
X133532619Y-56491190D01*
X133151666Y-56491190D01*
X134675476Y-56967380D02*
X134104047Y-56967380D01*
X134389761Y-56967380D02*
X134389761Y-55967380D01*
X134294523Y-56110238D01*
X134199285Y-56205476D01*
X134104047Y-56253095D01*
X135532619Y-56300714D02*
X135532619Y-56967380D01*
X135294523Y-55919761D02*
X135056428Y-56634047D01*
X135675476Y-56634047D01*
G04 #@! TO.C,JP15*
X137120476Y-55967380D02*
X137120476Y-56681666D01*
X137072857Y-56824523D01*
X136977619Y-56919761D01*
X136834761Y-56967380D01*
X136739523Y-56967380D01*
X137596666Y-56967380D02*
X137596666Y-55967380D01*
X137977619Y-55967380D01*
X138072857Y-56015000D01*
X138120476Y-56062619D01*
X138168095Y-56157857D01*
X138168095Y-56300714D01*
X138120476Y-56395952D01*
X138072857Y-56443571D01*
X137977619Y-56491190D01*
X137596666Y-56491190D01*
X139120476Y-56967380D02*
X138549047Y-56967380D01*
X138834761Y-56967380D02*
X138834761Y-55967380D01*
X138739523Y-56110238D01*
X138644285Y-56205476D01*
X138549047Y-56253095D01*
X140025238Y-55967380D02*
X139549047Y-55967380D01*
X139501428Y-56443571D01*
X139549047Y-56395952D01*
X139644285Y-56348333D01*
X139882380Y-56348333D01*
X139977619Y-56395952D01*
X140025238Y-56443571D01*
X140072857Y-56538809D01*
X140072857Y-56776904D01*
X140025238Y-56872142D01*
X139977619Y-56919761D01*
X139882380Y-56967380D01*
X139644285Y-56967380D01*
X139549047Y-56919761D01*
X139501428Y-56872142D01*
G04 #@! TO.C,JP16*
X141565476Y-55967380D02*
X141565476Y-56681666D01*
X141517857Y-56824523D01*
X141422619Y-56919761D01*
X141279761Y-56967380D01*
X141184523Y-56967380D01*
X142041666Y-56967380D02*
X142041666Y-55967380D01*
X142422619Y-55967380D01*
X142517857Y-56015000D01*
X142565476Y-56062619D01*
X142613095Y-56157857D01*
X142613095Y-56300714D01*
X142565476Y-56395952D01*
X142517857Y-56443571D01*
X142422619Y-56491190D01*
X142041666Y-56491190D01*
X143565476Y-56967380D02*
X142994047Y-56967380D01*
X143279761Y-56967380D02*
X143279761Y-55967380D01*
X143184523Y-56110238D01*
X143089285Y-56205476D01*
X142994047Y-56253095D01*
X144422619Y-55967380D02*
X144232142Y-55967380D01*
X144136904Y-56015000D01*
X144089285Y-56062619D01*
X143994047Y-56205476D01*
X143946428Y-56395952D01*
X143946428Y-56776904D01*
X143994047Y-56872142D01*
X144041666Y-56919761D01*
X144136904Y-56967380D01*
X144327380Y-56967380D01*
X144422619Y-56919761D01*
X144470238Y-56872142D01*
X144517857Y-56776904D01*
X144517857Y-56538809D01*
X144470238Y-56443571D01*
X144422619Y-56395952D01*
X144327380Y-56348333D01*
X144136904Y-56348333D01*
X144041666Y-56395952D01*
X143994047Y-56443571D01*
X143946428Y-56538809D01*
G04 #@! TO.C,R1*
X142057380Y-61761666D02*
X141581190Y-62095000D01*
X142057380Y-62333095D02*
X141057380Y-62333095D01*
X141057380Y-61952142D01*
X141105000Y-61856904D01*
X141152619Y-61809285D01*
X141247857Y-61761666D01*
X141390714Y-61761666D01*
X141485952Y-61809285D01*
X141533571Y-61856904D01*
X141581190Y-61952142D01*
X141581190Y-62333095D01*
X142057380Y-60809285D02*
X142057380Y-61380714D01*
X142057380Y-61095000D02*
X141057380Y-61095000D01*
X141200238Y-61190238D01*
X141295476Y-61285476D01*
X141343095Y-61380714D01*
G04 #@! TO.C,U1*
X128778095Y-56937380D02*
X128778095Y-57746904D01*
X128825714Y-57842142D01*
X128873333Y-57889761D01*
X128968571Y-57937380D01*
X129159047Y-57937380D01*
X129254285Y-57889761D01*
X129301904Y-57842142D01*
X129349523Y-57746904D01*
X129349523Y-56937380D01*
X130349523Y-57937380D02*
X129778095Y-57937380D01*
X130063809Y-57937380D02*
X130063809Y-56937380D01*
X129968571Y-57080238D01*
X129873333Y-57175476D01*
X129778095Y-57223095D01*
G04 #@! TO.C,J2*
X115236666Y-54697380D02*
X115236666Y-55411666D01*
X115189047Y-55554523D01*
X115093809Y-55649761D01*
X114950952Y-55697380D01*
X114855714Y-55697380D01*
X115665238Y-54792619D02*
X115712857Y-54745000D01*
X115808095Y-54697380D01*
X116046190Y-54697380D01*
X116141428Y-54745000D01*
X116189047Y-54792619D01*
X116236666Y-54887857D01*
X116236666Y-54983095D01*
X116189047Y-55125952D01*
X115617619Y-55697380D01*
X116236666Y-55697380D01*
G04 #@! TO.C,JPOE1*
X113760476Y-63587380D02*
X113760476Y-64301666D01*
X113712857Y-64444523D01*
X113617619Y-64539761D01*
X113474761Y-64587380D01*
X113379523Y-64587380D01*
X114236666Y-64587380D02*
X114236666Y-63587380D01*
X114617619Y-63587380D01*
X114712857Y-63635000D01*
X114760476Y-63682619D01*
X114808095Y-63777857D01*
X114808095Y-63920714D01*
X114760476Y-64015952D01*
X114712857Y-64063571D01*
X114617619Y-64111190D01*
X114236666Y-64111190D01*
X115427142Y-63587380D02*
X115617619Y-63587380D01*
X115712857Y-63635000D01*
X115808095Y-63730238D01*
X115855714Y-63920714D01*
X115855714Y-64254047D01*
X115808095Y-64444523D01*
X115712857Y-64539761D01*
X115617619Y-64587380D01*
X115427142Y-64587380D01*
X115331904Y-64539761D01*
X115236666Y-64444523D01*
X115189047Y-64254047D01*
X115189047Y-63920714D01*
X115236666Y-63730238D01*
X115331904Y-63635000D01*
X115427142Y-63587380D01*
X116284285Y-64063571D02*
X116617619Y-64063571D01*
X116760476Y-64587380D02*
X116284285Y-64587380D01*
X116284285Y-63587380D01*
X116760476Y-63587380D01*
X117712857Y-64587380D02*
X117141428Y-64587380D01*
X117427142Y-64587380D02*
X117427142Y-63587380D01*
X117331904Y-63730238D01*
X117236666Y-63825476D01*
X117141428Y-63873095D01*
G04 #@! TO.C,JPWR1*
X113665238Y-67397380D02*
X113665238Y-68111666D01*
X113617619Y-68254523D01*
X113522380Y-68349761D01*
X113379523Y-68397380D01*
X113284285Y-68397380D01*
X114141428Y-68397380D02*
X114141428Y-67397380D01*
X114522380Y-67397380D01*
X114617619Y-67445000D01*
X114665238Y-67492619D01*
X114712857Y-67587857D01*
X114712857Y-67730714D01*
X114665238Y-67825952D01*
X114617619Y-67873571D01*
X114522380Y-67921190D01*
X114141428Y-67921190D01*
X115046190Y-67397380D02*
X115284285Y-68397380D01*
X115474761Y-67683095D01*
X115665238Y-68397380D01*
X115903333Y-67397380D01*
X116855714Y-68397380D02*
X116522380Y-67921190D01*
X116284285Y-68397380D02*
X116284285Y-67397380D01*
X116665238Y-67397380D01*
X116760476Y-67445000D01*
X116808095Y-67492619D01*
X116855714Y-67587857D01*
X116855714Y-67730714D01*
X116808095Y-67825952D01*
X116760476Y-67873571D01*
X116665238Y-67921190D01*
X116284285Y-67921190D01*
X117808095Y-68397380D02*
X117236666Y-68397380D01*
X117522380Y-68397380D02*
X117522380Y-67397380D01*
X117427142Y-67540238D01*
X117331904Y-67635476D01*
X117236666Y-67683095D01*
G04 #@! TO.C,JPCE1*
X113784285Y-71207380D02*
X113784285Y-71921666D01*
X113736666Y-72064523D01*
X113641428Y-72159761D01*
X113498571Y-72207380D01*
X113403333Y-72207380D01*
X114260476Y-72207380D02*
X114260476Y-71207380D01*
X114641428Y-71207380D01*
X114736666Y-71255000D01*
X114784285Y-71302619D01*
X114831904Y-71397857D01*
X114831904Y-71540714D01*
X114784285Y-71635952D01*
X114736666Y-71683571D01*
X114641428Y-71731190D01*
X114260476Y-71731190D01*
X115831904Y-72112142D02*
X115784285Y-72159761D01*
X115641428Y-72207380D01*
X115546190Y-72207380D01*
X115403333Y-72159761D01*
X115308095Y-72064523D01*
X115260476Y-71969285D01*
X115212857Y-71778809D01*
X115212857Y-71635952D01*
X115260476Y-71445476D01*
X115308095Y-71350238D01*
X115403333Y-71255000D01*
X115546190Y-71207380D01*
X115641428Y-71207380D01*
X115784285Y-71255000D01*
X115831904Y-71302619D01*
X116260476Y-71683571D02*
X116593809Y-71683571D01*
X116736666Y-72207380D02*
X116260476Y-72207380D01*
X116260476Y-71207380D01*
X116736666Y-71207380D01*
X117689047Y-72207380D02*
X117117619Y-72207380D01*
X117403333Y-72207380D02*
X117403333Y-71207380D01*
X117308095Y-71350238D01*
X117212857Y-71445476D01*
X117117619Y-71493095D01*
G04 #@! TD*
M02*
