G04 #@! TF.GenerationSoftware,KiCad,Pcbnew,5.0.0-rc2-be01b52~65~ubuntu18.04.1*
G04 #@! TF.CreationDate,2018-06-11T23:06:02+04:00*
G04 #@! TF.ProjectId,interface2_cartridge,696E74657266616365325F6361727472,rev?*
G04 #@! TF.SameCoordinates,Original*
G04 #@! TF.FileFunction,Copper,L1,Top,Signal*
G04 #@! TF.FilePolarity,Positive*
%FSLAX46Y46*%
G04 Gerber Fmt 4.6, Leading zero omitted, Abs format (unit mm)*
G04 Created by KiCad (PCBNEW 5.0.0-rc2-be01b52~65~ubuntu18.04.1) date Mon Jun 11 23:06:02 2018*
%MOMM*%
%LPD*%
G01*
G04 APERTURE LIST*
G04 #@! TA.AperFunction,Conductor*
%ADD10C,0.100000*%
G04 #@! TD*
G04 #@! TA.AperFunction,Conductor*
%ADD11C,1.524000*%
G04 #@! TD*
G04 #@! TA.AperFunction,SMDPad,CuDef*
%ADD12R,1.800000X1.070000*%
G04 #@! TD*
G04 #@! TA.AperFunction,SMDPad,CuDef*
%ADD13R,1.500000X0.500000*%
G04 #@! TD*
G04 #@! TA.AperFunction,SMDPad,CuDef*
%ADD14C,1.000000*%
G04 #@! TD*
G04 #@! TA.AperFunction,SMDPad,CuDef*
%ADD15R,1.500000X1.000000*%
G04 #@! TD*
G04 #@! TA.AperFunction,SMDPad,CuDef*
%ADD16R,0.700000X1.925000*%
G04 #@! TD*
G04 #@! TA.AperFunction,SMDPad,CuDef*
%ADD17R,1.925000X0.700000*%
G04 #@! TD*
G04 #@! TA.AperFunction,ComponentPad*
%ADD18R,1.700000X1.700000*%
G04 #@! TD*
G04 #@! TA.AperFunction,ComponentPad*
%ADD19O,1.700000X1.700000*%
G04 #@! TD*
G04 #@! TA.AperFunction,SMDPad,CuDef*
%ADD20R,0.500000X1.500000*%
G04 #@! TD*
G04 #@! TA.AperFunction,ViaPad*
%ADD21C,0.800000*%
G04 #@! TD*
G04 #@! TA.AperFunction,Conductor*
%ADD22C,0.300000*%
G04 #@! TD*
G04 APERTURE END LIST*
D10*
G04 #@! TO.N,+5V*
G04 #@! TO.C,J1*
G36*
X114718345Y-80265835D02*
X114755329Y-80271321D01*
X114791598Y-80280406D01*
X114826802Y-80293002D01*
X114860602Y-80308988D01*
X114892672Y-80328210D01*
X114922704Y-80350483D01*
X114950408Y-80375592D01*
X114975517Y-80403296D01*
X114997790Y-80433328D01*
X115017012Y-80465398D01*
X115032998Y-80499198D01*
X115045594Y-80534402D01*
X115054679Y-80570671D01*
X115060165Y-80607655D01*
X115062000Y-80645000D01*
X115062000Y-86995000D01*
X115060165Y-87032345D01*
X115054679Y-87069329D01*
X115045594Y-87105598D01*
X115032998Y-87140802D01*
X115017012Y-87174602D01*
X114997790Y-87206672D01*
X114975517Y-87236704D01*
X114950408Y-87264408D01*
X114922704Y-87289517D01*
X114892672Y-87311790D01*
X114860602Y-87331012D01*
X114826802Y-87346998D01*
X114791598Y-87359594D01*
X114755329Y-87368679D01*
X114718345Y-87374165D01*
X114681000Y-87376000D01*
X113919000Y-87376000D01*
X113881655Y-87374165D01*
X113844671Y-87368679D01*
X113808402Y-87359594D01*
X113773198Y-87346998D01*
X113739398Y-87331012D01*
X113707328Y-87311790D01*
X113677296Y-87289517D01*
X113649592Y-87264408D01*
X113624483Y-87236704D01*
X113602210Y-87206672D01*
X113582988Y-87174602D01*
X113567002Y-87140802D01*
X113554406Y-87105598D01*
X113545321Y-87069329D01*
X113539835Y-87032345D01*
X113538000Y-86995000D01*
X113538000Y-80645000D01*
X113539835Y-80607655D01*
X113545321Y-80570671D01*
X113554406Y-80534402D01*
X113567002Y-80499198D01*
X113582988Y-80465398D01*
X113602210Y-80433328D01*
X113624483Y-80403296D01*
X113649592Y-80375592D01*
X113677296Y-80350483D01*
X113707328Y-80328210D01*
X113739398Y-80308988D01*
X113773198Y-80293002D01*
X113808402Y-80280406D01*
X113844671Y-80271321D01*
X113881655Y-80265835D01*
X113919000Y-80264000D01*
X114681000Y-80264000D01*
X114718345Y-80265835D01*
X114718345Y-80265835D01*
G37*
D11*
X114300000Y-83820000D03*
D10*
G04 #@! TO.N,A12*
G36*
X117258345Y-80265835D02*
X117295329Y-80271321D01*
X117331598Y-80280406D01*
X117366802Y-80293002D01*
X117400602Y-80308988D01*
X117432672Y-80328210D01*
X117462704Y-80350483D01*
X117490408Y-80375592D01*
X117515517Y-80403296D01*
X117537790Y-80433328D01*
X117557012Y-80465398D01*
X117572998Y-80499198D01*
X117585594Y-80534402D01*
X117594679Y-80570671D01*
X117600165Y-80607655D01*
X117602000Y-80645000D01*
X117602000Y-86995000D01*
X117600165Y-87032345D01*
X117594679Y-87069329D01*
X117585594Y-87105598D01*
X117572998Y-87140802D01*
X117557012Y-87174602D01*
X117537790Y-87206672D01*
X117515517Y-87236704D01*
X117490408Y-87264408D01*
X117462704Y-87289517D01*
X117432672Y-87311790D01*
X117400602Y-87331012D01*
X117366802Y-87346998D01*
X117331598Y-87359594D01*
X117295329Y-87368679D01*
X117258345Y-87374165D01*
X117221000Y-87376000D01*
X116459000Y-87376000D01*
X116421655Y-87374165D01*
X116384671Y-87368679D01*
X116348402Y-87359594D01*
X116313198Y-87346998D01*
X116279398Y-87331012D01*
X116247328Y-87311790D01*
X116217296Y-87289517D01*
X116189592Y-87264408D01*
X116164483Y-87236704D01*
X116142210Y-87206672D01*
X116122988Y-87174602D01*
X116107002Y-87140802D01*
X116094406Y-87105598D01*
X116085321Y-87069329D01*
X116079835Y-87032345D01*
X116078000Y-86995000D01*
X116078000Y-80645000D01*
X116079835Y-80607655D01*
X116085321Y-80570671D01*
X116094406Y-80534402D01*
X116107002Y-80499198D01*
X116122988Y-80465398D01*
X116142210Y-80433328D01*
X116164483Y-80403296D01*
X116189592Y-80375592D01*
X116217296Y-80350483D01*
X116247328Y-80328210D01*
X116279398Y-80308988D01*
X116313198Y-80293002D01*
X116348402Y-80280406D01*
X116384671Y-80271321D01*
X116421655Y-80265835D01*
X116459000Y-80264000D01*
X117221000Y-80264000D01*
X117258345Y-80265835D01*
X117258345Y-80265835D01*
G37*
D11*
X116840000Y-83820000D03*
D10*
G04 #@! TO.N,A7*
G36*
X119798345Y-80265835D02*
X119835329Y-80271321D01*
X119871598Y-80280406D01*
X119906802Y-80293002D01*
X119940602Y-80308988D01*
X119972672Y-80328210D01*
X120002704Y-80350483D01*
X120030408Y-80375592D01*
X120055517Y-80403296D01*
X120077790Y-80433328D01*
X120097012Y-80465398D01*
X120112998Y-80499198D01*
X120125594Y-80534402D01*
X120134679Y-80570671D01*
X120140165Y-80607655D01*
X120142000Y-80645000D01*
X120142000Y-86995000D01*
X120140165Y-87032345D01*
X120134679Y-87069329D01*
X120125594Y-87105598D01*
X120112998Y-87140802D01*
X120097012Y-87174602D01*
X120077790Y-87206672D01*
X120055517Y-87236704D01*
X120030408Y-87264408D01*
X120002704Y-87289517D01*
X119972672Y-87311790D01*
X119940602Y-87331012D01*
X119906802Y-87346998D01*
X119871598Y-87359594D01*
X119835329Y-87368679D01*
X119798345Y-87374165D01*
X119761000Y-87376000D01*
X118999000Y-87376000D01*
X118961655Y-87374165D01*
X118924671Y-87368679D01*
X118888402Y-87359594D01*
X118853198Y-87346998D01*
X118819398Y-87331012D01*
X118787328Y-87311790D01*
X118757296Y-87289517D01*
X118729592Y-87264408D01*
X118704483Y-87236704D01*
X118682210Y-87206672D01*
X118662988Y-87174602D01*
X118647002Y-87140802D01*
X118634406Y-87105598D01*
X118625321Y-87069329D01*
X118619835Y-87032345D01*
X118618000Y-86995000D01*
X118618000Y-80645000D01*
X118619835Y-80607655D01*
X118625321Y-80570671D01*
X118634406Y-80534402D01*
X118647002Y-80499198D01*
X118662988Y-80465398D01*
X118682210Y-80433328D01*
X118704483Y-80403296D01*
X118729592Y-80375592D01*
X118757296Y-80350483D01*
X118787328Y-80328210D01*
X118819398Y-80308988D01*
X118853198Y-80293002D01*
X118888402Y-80280406D01*
X118924671Y-80271321D01*
X118961655Y-80265835D01*
X118999000Y-80264000D01*
X119761000Y-80264000D01*
X119798345Y-80265835D01*
X119798345Y-80265835D01*
G37*
D11*
X119380000Y-83820000D03*
D10*
G04 #@! TO.N,A6*
G36*
X122338345Y-80265835D02*
X122375329Y-80271321D01*
X122411598Y-80280406D01*
X122446802Y-80293002D01*
X122480602Y-80308988D01*
X122512672Y-80328210D01*
X122542704Y-80350483D01*
X122570408Y-80375592D01*
X122595517Y-80403296D01*
X122617790Y-80433328D01*
X122637012Y-80465398D01*
X122652998Y-80499198D01*
X122665594Y-80534402D01*
X122674679Y-80570671D01*
X122680165Y-80607655D01*
X122682000Y-80645000D01*
X122682000Y-86995000D01*
X122680165Y-87032345D01*
X122674679Y-87069329D01*
X122665594Y-87105598D01*
X122652998Y-87140802D01*
X122637012Y-87174602D01*
X122617790Y-87206672D01*
X122595517Y-87236704D01*
X122570408Y-87264408D01*
X122542704Y-87289517D01*
X122512672Y-87311790D01*
X122480602Y-87331012D01*
X122446802Y-87346998D01*
X122411598Y-87359594D01*
X122375329Y-87368679D01*
X122338345Y-87374165D01*
X122301000Y-87376000D01*
X121539000Y-87376000D01*
X121501655Y-87374165D01*
X121464671Y-87368679D01*
X121428402Y-87359594D01*
X121393198Y-87346998D01*
X121359398Y-87331012D01*
X121327328Y-87311790D01*
X121297296Y-87289517D01*
X121269592Y-87264408D01*
X121244483Y-87236704D01*
X121222210Y-87206672D01*
X121202988Y-87174602D01*
X121187002Y-87140802D01*
X121174406Y-87105598D01*
X121165321Y-87069329D01*
X121159835Y-87032345D01*
X121158000Y-86995000D01*
X121158000Y-80645000D01*
X121159835Y-80607655D01*
X121165321Y-80570671D01*
X121174406Y-80534402D01*
X121187002Y-80499198D01*
X121202988Y-80465398D01*
X121222210Y-80433328D01*
X121244483Y-80403296D01*
X121269592Y-80375592D01*
X121297296Y-80350483D01*
X121327328Y-80328210D01*
X121359398Y-80308988D01*
X121393198Y-80293002D01*
X121428402Y-80280406D01*
X121464671Y-80271321D01*
X121501655Y-80265835D01*
X121539000Y-80264000D01*
X122301000Y-80264000D01*
X122338345Y-80265835D01*
X122338345Y-80265835D01*
G37*
D11*
X121920000Y-83820000D03*
D10*
G04 #@! TO.N,A5*
G36*
X127418345Y-80265835D02*
X127455329Y-80271321D01*
X127491598Y-80280406D01*
X127526802Y-80293002D01*
X127560602Y-80308988D01*
X127592672Y-80328210D01*
X127622704Y-80350483D01*
X127650408Y-80375592D01*
X127675517Y-80403296D01*
X127697790Y-80433328D01*
X127717012Y-80465398D01*
X127732998Y-80499198D01*
X127745594Y-80534402D01*
X127754679Y-80570671D01*
X127760165Y-80607655D01*
X127762000Y-80645000D01*
X127762000Y-86995000D01*
X127760165Y-87032345D01*
X127754679Y-87069329D01*
X127745594Y-87105598D01*
X127732998Y-87140802D01*
X127717012Y-87174602D01*
X127697790Y-87206672D01*
X127675517Y-87236704D01*
X127650408Y-87264408D01*
X127622704Y-87289517D01*
X127592672Y-87311790D01*
X127560602Y-87331012D01*
X127526802Y-87346998D01*
X127491598Y-87359594D01*
X127455329Y-87368679D01*
X127418345Y-87374165D01*
X127381000Y-87376000D01*
X126619000Y-87376000D01*
X126581655Y-87374165D01*
X126544671Y-87368679D01*
X126508402Y-87359594D01*
X126473198Y-87346998D01*
X126439398Y-87331012D01*
X126407328Y-87311790D01*
X126377296Y-87289517D01*
X126349592Y-87264408D01*
X126324483Y-87236704D01*
X126302210Y-87206672D01*
X126282988Y-87174602D01*
X126267002Y-87140802D01*
X126254406Y-87105598D01*
X126245321Y-87069329D01*
X126239835Y-87032345D01*
X126238000Y-86995000D01*
X126238000Y-80645000D01*
X126239835Y-80607655D01*
X126245321Y-80570671D01*
X126254406Y-80534402D01*
X126267002Y-80499198D01*
X126282988Y-80465398D01*
X126302210Y-80433328D01*
X126324483Y-80403296D01*
X126349592Y-80375592D01*
X126377296Y-80350483D01*
X126407328Y-80328210D01*
X126439398Y-80308988D01*
X126473198Y-80293002D01*
X126508402Y-80280406D01*
X126544671Y-80271321D01*
X126581655Y-80265835D01*
X126619000Y-80264000D01*
X127381000Y-80264000D01*
X127418345Y-80265835D01*
X127418345Y-80265835D01*
G37*
D11*
X127000000Y-83820000D03*
D10*
G04 #@! TO.N,A4*
G36*
X129958345Y-80265835D02*
X129995329Y-80271321D01*
X130031598Y-80280406D01*
X130066802Y-80293002D01*
X130100602Y-80308988D01*
X130132672Y-80328210D01*
X130162704Y-80350483D01*
X130190408Y-80375592D01*
X130215517Y-80403296D01*
X130237790Y-80433328D01*
X130257012Y-80465398D01*
X130272998Y-80499198D01*
X130285594Y-80534402D01*
X130294679Y-80570671D01*
X130300165Y-80607655D01*
X130302000Y-80645000D01*
X130302000Y-86995000D01*
X130300165Y-87032345D01*
X130294679Y-87069329D01*
X130285594Y-87105598D01*
X130272998Y-87140802D01*
X130257012Y-87174602D01*
X130237790Y-87206672D01*
X130215517Y-87236704D01*
X130190408Y-87264408D01*
X130162704Y-87289517D01*
X130132672Y-87311790D01*
X130100602Y-87331012D01*
X130066802Y-87346998D01*
X130031598Y-87359594D01*
X129995329Y-87368679D01*
X129958345Y-87374165D01*
X129921000Y-87376000D01*
X129159000Y-87376000D01*
X129121655Y-87374165D01*
X129084671Y-87368679D01*
X129048402Y-87359594D01*
X129013198Y-87346998D01*
X128979398Y-87331012D01*
X128947328Y-87311790D01*
X128917296Y-87289517D01*
X128889592Y-87264408D01*
X128864483Y-87236704D01*
X128842210Y-87206672D01*
X128822988Y-87174602D01*
X128807002Y-87140802D01*
X128794406Y-87105598D01*
X128785321Y-87069329D01*
X128779835Y-87032345D01*
X128778000Y-86995000D01*
X128778000Y-80645000D01*
X128779835Y-80607655D01*
X128785321Y-80570671D01*
X128794406Y-80534402D01*
X128807002Y-80499198D01*
X128822988Y-80465398D01*
X128842210Y-80433328D01*
X128864483Y-80403296D01*
X128889592Y-80375592D01*
X128917296Y-80350483D01*
X128947328Y-80328210D01*
X128979398Y-80308988D01*
X129013198Y-80293002D01*
X129048402Y-80280406D01*
X129084671Y-80271321D01*
X129121655Y-80265835D01*
X129159000Y-80264000D01*
X129921000Y-80264000D01*
X129958345Y-80265835D01*
X129958345Y-80265835D01*
G37*
D11*
X129540000Y-83820000D03*
D10*
G04 #@! TO.N,A3*
G36*
X132498345Y-80265835D02*
X132535329Y-80271321D01*
X132571598Y-80280406D01*
X132606802Y-80293002D01*
X132640602Y-80308988D01*
X132672672Y-80328210D01*
X132702704Y-80350483D01*
X132730408Y-80375592D01*
X132755517Y-80403296D01*
X132777790Y-80433328D01*
X132797012Y-80465398D01*
X132812998Y-80499198D01*
X132825594Y-80534402D01*
X132834679Y-80570671D01*
X132840165Y-80607655D01*
X132842000Y-80645000D01*
X132842000Y-86995000D01*
X132840165Y-87032345D01*
X132834679Y-87069329D01*
X132825594Y-87105598D01*
X132812998Y-87140802D01*
X132797012Y-87174602D01*
X132777790Y-87206672D01*
X132755517Y-87236704D01*
X132730408Y-87264408D01*
X132702704Y-87289517D01*
X132672672Y-87311790D01*
X132640602Y-87331012D01*
X132606802Y-87346998D01*
X132571598Y-87359594D01*
X132535329Y-87368679D01*
X132498345Y-87374165D01*
X132461000Y-87376000D01*
X131699000Y-87376000D01*
X131661655Y-87374165D01*
X131624671Y-87368679D01*
X131588402Y-87359594D01*
X131553198Y-87346998D01*
X131519398Y-87331012D01*
X131487328Y-87311790D01*
X131457296Y-87289517D01*
X131429592Y-87264408D01*
X131404483Y-87236704D01*
X131382210Y-87206672D01*
X131362988Y-87174602D01*
X131347002Y-87140802D01*
X131334406Y-87105598D01*
X131325321Y-87069329D01*
X131319835Y-87032345D01*
X131318000Y-86995000D01*
X131318000Y-80645000D01*
X131319835Y-80607655D01*
X131325321Y-80570671D01*
X131334406Y-80534402D01*
X131347002Y-80499198D01*
X131362988Y-80465398D01*
X131382210Y-80433328D01*
X131404483Y-80403296D01*
X131429592Y-80375592D01*
X131457296Y-80350483D01*
X131487328Y-80328210D01*
X131519398Y-80308988D01*
X131553198Y-80293002D01*
X131588402Y-80280406D01*
X131624671Y-80271321D01*
X131661655Y-80265835D01*
X131699000Y-80264000D01*
X132461000Y-80264000D01*
X132498345Y-80265835D01*
X132498345Y-80265835D01*
G37*
D11*
X132080000Y-83820000D03*
D10*
G04 #@! TO.N,A2*
G36*
X135038345Y-80265835D02*
X135075329Y-80271321D01*
X135111598Y-80280406D01*
X135146802Y-80293002D01*
X135180602Y-80308988D01*
X135212672Y-80328210D01*
X135242704Y-80350483D01*
X135270408Y-80375592D01*
X135295517Y-80403296D01*
X135317790Y-80433328D01*
X135337012Y-80465398D01*
X135352998Y-80499198D01*
X135365594Y-80534402D01*
X135374679Y-80570671D01*
X135380165Y-80607655D01*
X135382000Y-80645000D01*
X135382000Y-86995000D01*
X135380165Y-87032345D01*
X135374679Y-87069329D01*
X135365594Y-87105598D01*
X135352998Y-87140802D01*
X135337012Y-87174602D01*
X135317790Y-87206672D01*
X135295517Y-87236704D01*
X135270408Y-87264408D01*
X135242704Y-87289517D01*
X135212672Y-87311790D01*
X135180602Y-87331012D01*
X135146802Y-87346998D01*
X135111598Y-87359594D01*
X135075329Y-87368679D01*
X135038345Y-87374165D01*
X135001000Y-87376000D01*
X134239000Y-87376000D01*
X134201655Y-87374165D01*
X134164671Y-87368679D01*
X134128402Y-87359594D01*
X134093198Y-87346998D01*
X134059398Y-87331012D01*
X134027328Y-87311790D01*
X133997296Y-87289517D01*
X133969592Y-87264408D01*
X133944483Y-87236704D01*
X133922210Y-87206672D01*
X133902988Y-87174602D01*
X133887002Y-87140802D01*
X133874406Y-87105598D01*
X133865321Y-87069329D01*
X133859835Y-87032345D01*
X133858000Y-86995000D01*
X133858000Y-80645000D01*
X133859835Y-80607655D01*
X133865321Y-80570671D01*
X133874406Y-80534402D01*
X133887002Y-80499198D01*
X133902988Y-80465398D01*
X133922210Y-80433328D01*
X133944483Y-80403296D01*
X133969592Y-80375592D01*
X133997296Y-80350483D01*
X134027328Y-80328210D01*
X134059398Y-80308988D01*
X134093198Y-80293002D01*
X134128402Y-80280406D01*
X134164671Y-80271321D01*
X134201655Y-80265835D01*
X134239000Y-80264000D01*
X135001000Y-80264000D01*
X135038345Y-80265835D01*
X135038345Y-80265835D01*
G37*
D11*
X134620000Y-83820000D03*
D10*
G04 #@! TO.N,A1*
G36*
X137578345Y-80265835D02*
X137615329Y-80271321D01*
X137651598Y-80280406D01*
X137686802Y-80293002D01*
X137720602Y-80308988D01*
X137752672Y-80328210D01*
X137782704Y-80350483D01*
X137810408Y-80375592D01*
X137835517Y-80403296D01*
X137857790Y-80433328D01*
X137877012Y-80465398D01*
X137892998Y-80499198D01*
X137905594Y-80534402D01*
X137914679Y-80570671D01*
X137920165Y-80607655D01*
X137922000Y-80645000D01*
X137922000Y-86995000D01*
X137920165Y-87032345D01*
X137914679Y-87069329D01*
X137905594Y-87105598D01*
X137892998Y-87140802D01*
X137877012Y-87174602D01*
X137857790Y-87206672D01*
X137835517Y-87236704D01*
X137810408Y-87264408D01*
X137782704Y-87289517D01*
X137752672Y-87311790D01*
X137720602Y-87331012D01*
X137686802Y-87346998D01*
X137651598Y-87359594D01*
X137615329Y-87368679D01*
X137578345Y-87374165D01*
X137541000Y-87376000D01*
X136779000Y-87376000D01*
X136741655Y-87374165D01*
X136704671Y-87368679D01*
X136668402Y-87359594D01*
X136633198Y-87346998D01*
X136599398Y-87331012D01*
X136567328Y-87311790D01*
X136537296Y-87289517D01*
X136509592Y-87264408D01*
X136484483Y-87236704D01*
X136462210Y-87206672D01*
X136442988Y-87174602D01*
X136427002Y-87140802D01*
X136414406Y-87105598D01*
X136405321Y-87069329D01*
X136399835Y-87032345D01*
X136398000Y-86995000D01*
X136398000Y-80645000D01*
X136399835Y-80607655D01*
X136405321Y-80570671D01*
X136414406Y-80534402D01*
X136427002Y-80499198D01*
X136442988Y-80465398D01*
X136462210Y-80433328D01*
X136484483Y-80403296D01*
X136509592Y-80375592D01*
X136537296Y-80350483D01*
X136567328Y-80328210D01*
X136599398Y-80308988D01*
X136633198Y-80293002D01*
X136668402Y-80280406D01*
X136704671Y-80271321D01*
X136741655Y-80265835D01*
X136779000Y-80264000D01*
X137541000Y-80264000D01*
X137578345Y-80265835D01*
X137578345Y-80265835D01*
G37*
D11*
X137160000Y-83820000D03*
D10*
G04 #@! TO.N,A0*
G36*
X140118345Y-80265835D02*
X140155329Y-80271321D01*
X140191598Y-80280406D01*
X140226802Y-80293002D01*
X140260602Y-80308988D01*
X140292672Y-80328210D01*
X140322704Y-80350483D01*
X140350408Y-80375592D01*
X140375517Y-80403296D01*
X140397790Y-80433328D01*
X140417012Y-80465398D01*
X140432998Y-80499198D01*
X140445594Y-80534402D01*
X140454679Y-80570671D01*
X140460165Y-80607655D01*
X140462000Y-80645000D01*
X140462000Y-86995000D01*
X140460165Y-87032345D01*
X140454679Y-87069329D01*
X140445594Y-87105598D01*
X140432998Y-87140802D01*
X140417012Y-87174602D01*
X140397790Y-87206672D01*
X140375517Y-87236704D01*
X140350408Y-87264408D01*
X140322704Y-87289517D01*
X140292672Y-87311790D01*
X140260602Y-87331012D01*
X140226802Y-87346998D01*
X140191598Y-87359594D01*
X140155329Y-87368679D01*
X140118345Y-87374165D01*
X140081000Y-87376000D01*
X139319000Y-87376000D01*
X139281655Y-87374165D01*
X139244671Y-87368679D01*
X139208402Y-87359594D01*
X139173198Y-87346998D01*
X139139398Y-87331012D01*
X139107328Y-87311790D01*
X139077296Y-87289517D01*
X139049592Y-87264408D01*
X139024483Y-87236704D01*
X139002210Y-87206672D01*
X138982988Y-87174602D01*
X138967002Y-87140802D01*
X138954406Y-87105598D01*
X138945321Y-87069329D01*
X138939835Y-87032345D01*
X138938000Y-86995000D01*
X138938000Y-80645000D01*
X138939835Y-80607655D01*
X138945321Y-80570671D01*
X138954406Y-80534402D01*
X138967002Y-80499198D01*
X138982988Y-80465398D01*
X139002210Y-80433328D01*
X139024483Y-80403296D01*
X139049592Y-80375592D01*
X139077296Y-80350483D01*
X139107328Y-80328210D01*
X139139398Y-80308988D01*
X139173198Y-80293002D01*
X139208402Y-80280406D01*
X139244671Y-80271321D01*
X139281655Y-80265835D01*
X139319000Y-80264000D01*
X140081000Y-80264000D01*
X140118345Y-80265835D01*
X140118345Y-80265835D01*
G37*
D11*
X139700000Y-83820000D03*
D10*
G04 #@! TO.N,D0*
G36*
X142658345Y-80265835D02*
X142695329Y-80271321D01*
X142731598Y-80280406D01*
X142766802Y-80293002D01*
X142800602Y-80308988D01*
X142832672Y-80328210D01*
X142862704Y-80350483D01*
X142890408Y-80375592D01*
X142915517Y-80403296D01*
X142937790Y-80433328D01*
X142957012Y-80465398D01*
X142972998Y-80499198D01*
X142985594Y-80534402D01*
X142994679Y-80570671D01*
X143000165Y-80607655D01*
X143002000Y-80645000D01*
X143002000Y-86995000D01*
X143000165Y-87032345D01*
X142994679Y-87069329D01*
X142985594Y-87105598D01*
X142972998Y-87140802D01*
X142957012Y-87174602D01*
X142937790Y-87206672D01*
X142915517Y-87236704D01*
X142890408Y-87264408D01*
X142862704Y-87289517D01*
X142832672Y-87311790D01*
X142800602Y-87331012D01*
X142766802Y-87346998D01*
X142731598Y-87359594D01*
X142695329Y-87368679D01*
X142658345Y-87374165D01*
X142621000Y-87376000D01*
X141859000Y-87376000D01*
X141821655Y-87374165D01*
X141784671Y-87368679D01*
X141748402Y-87359594D01*
X141713198Y-87346998D01*
X141679398Y-87331012D01*
X141647328Y-87311790D01*
X141617296Y-87289517D01*
X141589592Y-87264408D01*
X141564483Y-87236704D01*
X141542210Y-87206672D01*
X141522988Y-87174602D01*
X141507002Y-87140802D01*
X141494406Y-87105598D01*
X141485321Y-87069329D01*
X141479835Y-87032345D01*
X141478000Y-86995000D01*
X141478000Y-80645000D01*
X141479835Y-80607655D01*
X141485321Y-80570671D01*
X141494406Y-80534402D01*
X141507002Y-80499198D01*
X141522988Y-80465398D01*
X141542210Y-80433328D01*
X141564483Y-80403296D01*
X141589592Y-80375592D01*
X141617296Y-80350483D01*
X141647328Y-80328210D01*
X141679398Y-80308988D01*
X141713198Y-80293002D01*
X141748402Y-80280406D01*
X141784671Y-80271321D01*
X141821655Y-80265835D01*
X141859000Y-80264000D01*
X142621000Y-80264000D01*
X142658345Y-80265835D01*
X142658345Y-80265835D01*
G37*
D11*
X142240000Y-83820000D03*
D10*
G04 #@! TO.N,D1*
G36*
X145198345Y-80265835D02*
X145235329Y-80271321D01*
X145271598Y-80280406D01*
X145306802Y-80293002D01*
X145340602Y-80308988D01*
X145372672Y-80328210D01*
X145402704Y-80350483D01*
X145430408Y-80375592D01*
X145455517Y-80403296D01*
X145477790Y-80433328D01*
X145497012Y-80465398D01*
X145512998Y-80499198D01*
X145525594Y-80534402D01*
X145534679Y-80570671D01*
X145540165Y-80607655D01*
X145542000Y-80645000D01*
X145542000Y-86995000D01*
X145540165Y-87032345D01*
X145534679Y-87069329D01*
X145525594Y-87105598D01*
X145512998Y-87140802D01*
X145497012Y-87174602D01*
X145477790Y-87206672D01*
X145455517Y-87236704D01*
X145430408Y-87264408D01*
X145402704Y-87289517D01*
X145372672Y-87311790D01*
X145340602Y-87331012D01*
X145306802Y-87346998D01*
X145271598Y-87359594D01*
X145235329Y-87368679D01*
X145198345Y-87374165D01*
X145161000Y-87376000D01*
X144399000Y-87376000D01*
X144361655Y-87374165D01*
X144324671Y-87368679D01*
X144288402Y-87359594D01*
X144253198Y-87346998D01*
X144219398Y-87331012D01*
X144187328Y-87311790D01*
X144157296Y-87289517D01*
X144129592Y-87264408D01*
X144104483Y-87236704D01*
X144082210Y-87206672D01*
X144062988Y-87174602D01*
X144047002Y-87140802D01*
X144034406Y-87105598D01*
X144025321Y-87069329D01*
X144019835Y-87032345D01*
X144018000Y-86995000D01*
X144018000Y-80645000D01*
X144019835Y-80607655D01*
X144025321Y-80570671D01*
X144034406Y-80534402D01*
X144047002Y-80499198D01*
X144062988Y-80465398D01*
X144082210Y-80433328D01*
X144104483Y-80403296D01*
X144129592Y-80375592D01*
X144157296Y-80350483D01*
X144187328Y-80328210D01*
X144219398Y-80308988D01*
X144253198Y-80293002D01*
X144288402Y-80280406D01*
X144324671Y-80271321D01*
X144361655Y-80265835D01*
X144399000Y-80264000D01*
X145161000Y-80264000D01*
X145198345Y-80265835D01*
X145198345Y-80265835D01*
G37*
D11*
X144780000Y-83820000D03*
D10*
G04 #@! TO.N,D2*
G36*
X147738345Y-80265835D02*
X147775329Y-80271321D01*
X147811598Y-80280406D01*
X147846802Y-80293002D01*
X147880602Y-80308988D01*
X147912672Y-80328210D01*
X147942704Y-80350483D01*
X147970408Y-80375592D01*
X147995517Y-80403296D01*
X148017790Y-80433328D01*
X148037012Y-80465398D01*
X148052998Y-80499198D01*
X148065594Y-80534402D01*
X148074679Y-80570671D01*
X148080165Y-80607655D01*
X148082000Y-80645000D01*
X148082000Y-86995000D01*
X148080165Y-87032345D01*
X148074679Y-87069329D01*
X148065594Y-87105598D01*
X148052998Y-87140802D01*
X148037012Y-87174602D01*
X148017790Y-87206672D01*
X147995517Y-87236704D01*
X147970408Y-87264408D01*
X147942704Y-87289517D01*
X147912672Y-87311790D01*
X147880602Y-87331012D01*
X147846802Y-87346998D01*
X147811598Y-87359594D01*
X147775329Y-87368679D01*
X147738345Y-87374165D01*
X147701000Y-87376000D01*
X146939000Y-87376000D01*
X146901655Y-87374165D01*
X146864671Y-87368679D01*
X146828402Y-87359594D01*
X146793198Y-87346998D01*
X146759398Y-87331012D01*
X146727328Y-87311790D01*
X146697296Y-87289517D01*
X146669592Y-87264408D01*
X146644483Y-87236704D01*
X146622210Y-87206672D01*
X146602988Y-87174602D01*
X146587002Y-87140802D01*
X146574406Y-87105598D01*
X146565321Y-87069329D01*
X146559835Y-87032345D01*
X146558000Y-86995000D01*
X146558000Y-80645000D01*
X146559835Y-80607655D01*
X146565321Y-80570671D01*
X146574406Y-80534402D01*
X146587002Y-80499198D01*
X146602988Y-80465398D01*
X146622210Y-80433328D01*
X146644483Y-80403296D01*
X146669592Y-80375592D01*
X146697296Y-80350483D01*
X146727328Y-80328210D01*
X146759398Y-80308988D01*
X146793198Y-80293002D01*
X146828402Y-80280406D01*
X146864671Y-80271321D01*
X146901655Y-80265835D01*
X146939000Y-80264000D01*
X147701000Y-80264000D01*
X147738345Y-80265835D01*
X147738345Y-80265835D01*
G37*
D11*
X147320000Y-83820000D03*
D10*
G04 #@! TO.N,GND*
G36*
X150278345Y-80265835D02*
X150315329Y-80271321D01*
X150351598Y-80280406D01*
X150386802Y-80293002D01*
X150420602Y-80308988D01*
X150452672Y-80328210D01*
X150482704Y-80350483D01*
X150510408Y-80375592D01*
X150535517Y-80403296D01*
X150557790Y-80433328D01*
X150577012Y-80465398D01*
X150592998Y-80499198D01*
X150605594Y-80534402D01*
X150614679Y-80570671D01*
X150620165Y-80607655D01*
X150622000Y-80645000D01*
X150622000Y-86995000D01*
X150620165Y-87032345D01*
X150614679Y-87069329D01*
X150605594Y-87105598D01*
X150592998Y-87140802D01*
X150577012Y-87174602D01*
X150557790Y-87206672D01*
X150535517Y-87236704D01*
X150510408Y-87264408D01*
X150482704Y-87289517D01*
X150452672Y-87311790D01*
X150420602Y-87331012D01*
X150386802Y-87346998D01*
X150351598Y-87359594D01*
X150315329Y-87368679D01*
X150278345Y-87374165D01*
X150241000Y-87376000D01*
X149479000Y-87376000D01*
X149441655Y-87374165D01*
X149404671Y-87368679D01*
X149368402Y-87359594D01*
X149333198Y-87346998D01*
X149299398Y-87331012D01*
X149267328Y-87311790D01*
X149237296Y-87289517D01*
X149209592Y-87264408D01*
X149184483Y-87236704D01*
X149162210Y-87206672D01*
X149142988Y-87174602D01*
X149127002Y-87140802D01*
X149114406Y-87105598D01*
X149105321Y-87069329D01*
X149099835Y-87032345D01*
X149098000Y-86995000D01*
X149098000Y-80645000D01*
X149099835Y-80607655D01*
X149105321Y-80570671D01*
X149114406Y-80534402D01*
X149127002Y-80499198D01*
X149142988Y-80465398D01*
X149162210Y-80433328D01*
X149184483Y-80403296D01*
X149209592Y-80375592D01*
X149237296Y-80350483D01*
X149267328Y-80328210D01*
X149299398Y-80308988D01*
X149333198Y-80293002D01*
X149368402Y-80280406D01*
X149404671Y-80271321D01*
X149441655Y-80265835D01*
X149479000Y-80264000D01*
X150241000Y-80264000D01*
X150278345Y-80265835D01*
X150278345Y-80265835D01*
G37*
D11*
X149860000Y-83820000D03*
G04 #@! TD*
D12*
G04 #@! TO.P,D1,1*
G04 #@! TO.N,Net-(D1-Pad1)*
X141605000Y-68980000D03*
G04 #@! TO.P,D1,2*
G04 #@! TO.N,Net-(D1-Pad2)*
X141605000Y-71990000D03*
G04 #@! TD*
G04 #@! TO.P,D2,2*
G04 #@! TO.N,Net-(D2-Pad2)*
X144780000Y-71990000D03*
G04 #@! TO.P,D2,1*
G04 #@! TO.N,Net-(D1-Pad1)*
X144780000Y-68980000D03*
G04 #@! TD*
G04 #@! TO.P,D3,1*
G04 #@! TO.N,Net-(D1-Pad1)*
X147828000Y-69043500D03*
G04 #@! TO.P,D3,2*
G04 #@! TO.N,Net-(D3-Pad2)*
X147828000Y-72053500D03*
G04 #@! TD*
D13*
G04 #@! TO.P,JP14,3*
G04 #@! TO.N,GND*
X134620000Y-52340000D03*
D10*
G04 #@! TD*
G04 #@! TO.N,GND*
G04 #@! TO.C,JP14*
G36*
X134919009Y-51542407D02*
X134967545Y-51549606D01*
X135015142Y-51561529D01*
X135061342Y-51578059D01*
X135105698Y-51599038D01*
X135147785Y-51624264D01*
X135187197Y-51653494D01*
X135223553Y-51686446D01*
X135256505Y-51722802D01*
X135285735Y-51762214D01*
X135310961Y-51804301D01*
X135331940Y-51848657D01*
X135348470Y-51894857D01*
X135360393Y-51942454D01*
X135367592Y-51990990D01*
X135370000Y-52039999D01*
X135370000Y-52040001D01*
X135367592Y-52089010D01*
X135360393Y-52137546D01*
X135348470Y-52185143D01*
X135331940Y-52231343D01*
X135310961Y-52275699D01*
X135285735Y-52317786D01*
X135256505Y-52357198D01*
X135223553Y-52393554D01*
X135187197Y-52426506D01*
X135147785Y-52455736D01*
X135105698Y-52480962D01*
X135061342Y-52501941D01*
X135015142Y-52518471D01*
X134967545Y-52530394D01*
X134919009Y-52537593D01*
X134870000Y-52540001D01*
X134370000Y-52540001D01*
X134320991Y-52537593D01*
X134272455Y-52530394D01*
X134224858Y-52518471D01*
X134178658Y-52501941D01*
X134134302Y-52480962D01*
X134092215Y-52455736D01*
X134052803Y-52426506D01*
X134016447Y-52393554D01*
X133983495Y-52357198D01*
X133954265Y-52317786D01*
X133929039Y-52275699D01*
X133908060Y-52231343D01*
X133891530Y-52185143D01*
X133879607Y-52137546D01*
X133872408Y-52089010D01*
X133870000Y-52040001D01*
X133870000Y-52039999D01*
X133872408Y-51990990D01*
X133879607Y-51942454D01*
X133891530Y-51894857D01*
X133908060Y-51848657D01*
X133929039Y-51804301D01*
X133954265Y-51762214D01*
X133983495Y-51722802D01*
X134016447Y-51686446D01*
X134052803Y-51653494D01*
X134092215Y-51624264D01*
X134134302Y-51599038D01*
X134178658Y-51578059D01*
X134224858Y-51561529D01*
X134272455Y-51549606D01*
X134320991Y-51542407D01*
X134370000Y-51539999D01*
X134870000Y-51539999D01*
X134919009Y-51542407D01*
X134919009Y-51542407D01*
G37*
D14*
G04 #@! TO.P,JP14,3*
G04 #@! TO.N,GND*
X134620000Y-52040000D03*
D15*
G04 #@! TO.P,JP14,2*
G04 #@! TO.N,A14*
X134620000Y-53340000D03*
D13*
G04 #@! TO.P,JP14,1*
G04 #@! TO.N,+5V*
X134620000Y-54340000D03*
D10*
G04 #@! TD*
G04 #@! TO.N,+5V*
G04 #@! TO.C,JP14*
G36*
X134919009Y-54142407D02*
X134967545Y-54149606D01*
X135015142Y-54161529D01*
X135061342Y-54178059D01*
X135105698Y-54199038D01*
X135147785Y-54224264D01*
X135187197Y-54253494D01*
X135223553Y-54286446D01*
X135256505Y-54322802D01*
X135285735Y-54362214D01*
X135310961Y-54404301D01*
X135331940Y-54448657D01*
X135348470Y-54494857D01*
X135360393Y-54542454D01*
X135367592Y-54590990D01*
X135370000Y-54639999D01*
X135370000Y-54640001D01*
X135367592Y-54689010D01*
X135360393Y-54737546D01*
X135348470Y-54785143D01*
X135331940Y-54831343D01*
X135310961Y-54875699D01*
X135285735Y-54917786D01*
X135256505Y-54957198D01*
X135223553Y-54993554D01*
X135187197Y-55026506D01*
X135147785Y-55055736D01*
X135105698Y-55080962D01*
X135061342Y-55101941D01*
X135015142Y-55118471D01*
X134967545Y-55130394D01*
X134919009Y-55137593D01*
X134870000Y-55140001D01*
X134370000Y-55140001D01*
X134320991Y-55137593D01*
X134272455Y-55130394D01*
X134224858Y-55118471D01*
X134178658Y-55101941D01*
X134134302Y-55080962D01*
X134092215Y-55055736D01*
X134052803Y-55026506D01*
X134016447Y-54993554D01*
X133983495Y-54957198D01*
X133954265Y-54917786D01*
X133929039Y-54875699D01*
X133908060Y-54831343D01*
X133891530Y-54785143D01*
X133879607Y-54737546D01*
X133872408Y-54689010D01*
X133870000Y-54640001D01*
X133870000Y-54639999D01*
X133872408Y-54590990D01*
X133879607Y-54542454D01*
X133891530Y-54494857D01*
X133908060Y-54448657D01*
X133929039Y-54404301D01*
X133954265Y-54362214D01*
X133983495Y-54322802D01*
X134016447Y-54286446D01*
X134052803Y-54253494D01*
X134092215Y-54224264D01*
X134134302Y-54199038D01*
X134178658Y-54178059D01*
X134224858Y-54161529D01*
X134272455Y-54149606D01*
X134320991Y-54142407D01*
X134370000Y-54139999D01*
X134870000Y-54139999D01*
X134919009Y-54142407D01*
X134919009Y-54142407D01*
G37*
D14*
G04 #@! TO.P,JP14,1*
G04 #@! TO.N,+5V*
X134620000Y-54640000D03*
G04 #@! TD*
D10*
G04 #@! TO.N,+5V*
G04 #@! TO.C,JP15*
G36*
X138729009Y-54142407D02*
X138777545Y-54149606D01*
X138825142Y-54161529D01*
X138871342Y-54178059D01*
X138915698Y-54199038D01*
X138957785Y-54224264D01*
X138997197Y-54253494D01*
X139033553Y-54286446D01*
X139066505Y-54322802D01*
X139095735Y-54362214D01*
X139120961Y-54404301D01*
X139141940Y-54448657D01*
X139158470Y-54494857D01*
X139170393Y-54542454D01*
X139177592Y-54590990D01*
X139180000Y-54639999D01*
X139180000Y-54640001D01*
X139177592Y-54689010D01*
X139170393Y-54737546D01*
X139158470Y-54785143D01*
X139141940Y-54831343D01*
X139120961Y-54875699D01*
X139095735Y-54917786D01*
X139066505Y-54957198D01*
X139033553Y-54993554D01*
X138997197Y-55026506D01*
X138957785Y-55055736D01*
X138915698Y-55080962D01*
X138871342Y-55101941D01*
X138825142Y-55118471D01*
X138777545Y-55130394D01*
X138729009Y-55137593D01*
X138680000Y-55140001D01*
X138180000Y-55140001D01*
X138130991Y-55137593D01*
X138082455Y-55130394D01*
X138034858Y-55118471D01*
X137988658Y-55101941D01*
X137944302Y-55080962D01*
X137902215Y-55055736D01*
X137862803Y-55026506D01*
X137826447Y-54993554D01*
X137793495Y-54957198D01*
X137764265Y-54917786D01*
X137739039Y-54875699D01*
X137718060Y-54831343D01*
X137701530Y-54785143D01*
X137689607Y-54737546D01*
X137682408Y-54689010D01*
X137680000Y-54640001D01*
X137680000Y-54639999D01*
X137682408Y-54590990D01*
X137689607Y-54542454D01*
X137701530Y-54494857D01*
X137718060Y-54448657D01*
X137739039Y-54404301D01*
X137764265Y-54362214D01*
X137793495Y-54322802D01*
X137826447Y-54286446D01*
X137862803Y-54253494D01*
X137902215Y-54224264D01*
X137944302Y-54199038D01*
X137988658Y-54178059D01*
X138034858Y-54161529D01*
X138082455Y-54149606D01*
X138130991Y-54142407D01*
X138180000Y-54139999D01*
X138680000Y-54139999D01*
X138729009Y-54142407D01*
X138729009Y-54142407D01*
G37*
D14*
G04 #@! TD*
G04 #@! TO.P,JP15,1*
G04 #@! TO.N,+5V*
X138430000Y-54640000D03*
D13*
G04 #@! TO.P,JP15,1*
G04 #@! TO.N,+5V*
X138430000Y-54340000D03*
D15*
G04 #@! TO.P,JP15,2*
G04 #@! TO.N,A15*
X138430000Y-53340000D03*
D10*
G04 #@! TD*
G04 #@! TO.N,GND*
G04 #@! TO.C,JP15*
G36*
X138729009Y-51542407D02*
X138777545Y-51549606D01*
X138825142Y-51561529D01*
X138871342Y-51578059D01*
X138915698Y-51599038D01*
X138957785Y-51624264D01*
X138997197Y-51653494D01*
X139033553Y-51686446D01*
X139066505Y-51722802D01*
X139095735Y-51762214D01*
X139120961Y-51804301D01*
X139141940Y-51848657D01*
X139158470Y-51894857D01*
X139170393Y-51942454D01*
X139177592Y-51990990D01*
X139180000Y-52039999D01*
X139180000Y-52040001D01*
X139177592Y-52089010D01*
X139170393Y-52137546D01*
X139158470Y-52185143D01*
X139141940Y-52231343D01*
X139120961Y-52275699D01*
X139095735Y-52317786D01*
X139066505Y-52357198D01*
X139033553Y-52393554D01*
X138997197Y-52426506D01*
X138957785Y-52455736D01*
X138915698Y-52480962D01*
X138871342Y-52501941D01*
X138825142Y-52518471D01*
X138777545Y-52530394D01*
X138729009Y-52537593D01*
X138680000Y-52540001D01*
X138180000Y-52540001D01*
X138130991Y-52537593D01*
X138082455Y-52530394D01*
X138034858Y-52518471D01*
X137988658Y-52501941D01*
X137944302Y-52480962D01*
X137902215Y-52455736D01*
X137862803Y-52426506D01*
X137826447Y-52393554D01*
X137793495Y-52357198D01*
X137764265Y-52317786D01*
X137739039Y-52275699D01*
X137718060Y-52231343D01*
X137701530Y-52185143D01*
X137689607Y-52137546D01*
X137682408Y-52089010D01*
X137680000Y-52040001D01*
X137680000Y-52039999D01*
X137682408Y-51990990D01*
X137689607Y-51942454D01*
X137701530Y-51894857D01*
X137718060Y-51848657D01*
X137739039Y-51804301D01*
X137764265Y-51762214D01*
X137793495Y-51722802D01*
X137826447Y-51686446D01*
X137862803Y-51653494D01*
X137902215Y-51624264D01*
X137944302Y-51599038D01*
X137988658Y-51578059D01*
X138034858Y-51561529D01*
X138082455Y-51549606D01*
X138130991Y-51542407D01*
X138180000Y-51539999D01*
X138680000Y-51539999D01*
X138729009Y-51542407D01*
X138729009Y-51542407D01*
G37*
D14*
G04 #@! TO.P,JP15,3*
G04 #@! TO.N,GND*
X138430000Y-52040000D03*
D13*
X138430000Y-52340000D03*
G04 #@! TD*
D10*
G04 #@! TO.N,+5V*
G04 #@! TO.C,JP16*
G36*
X142539009Y-54142407D02*
X142587545Y-54149606D01*
X142635142Y-54161529D01*
X142681342Y-54178059D01*
X142725698Y-54199038D01*
X142767785Y-54224264D01*
X142807197Y-54253494D01*
X142843553Y-54286446D01*
X142876505Y-54322802D01*
X142905735Y-54362214D01*
X142930961Y-54404301D01*
X142951940Y-54448657D01*
X142968470Y-54494857D01*
X142980393Y-54542454D01*
X142987592Y-54590990D01*
X142990000Y-54639999D01*
X142990000Y-54640001D01*
X142987592Y-54689010D01*
X142980393Y-54737546D01*
X142968470Y-54785143D01*
X142951940Y-54831343D01*
X142930961Y-54875699D01*
X142905735Y-54917786D01*
X142876505Y-54957198D01*
X142843553Y-54993554D01*
X142807197Y-55026506D01*
X142767785Y-55055736D01*
X142725698Y-55080962D01*
X142681342Y-55101941D01*
X142635142Y-55118471D01*
X142587545Y-55130394D01*
X142539009Y-55137593D01*
X142490000Y-55140001D01*
X141990000Y-55140001D01*
X141940991Y-55137593D01*
X141892455Y-55130394D01*
X141844858Y-55118471D01*
X141798658Y-55101941D01*
X141754302Y-55080962D01*
X141712215Y-55055736D01*
X141672803Y-55026506D01*
X141636447Y-54993554D01*
X141603495Y-54957198D01*
X141574265Y-54917786D01*
X141549039Y-54875699D01*
X141528060Y-54831343D01*
X141511530Y-54785143D01*
X141499607Y-54737546D01*
X141492408Y-54689010D01*
X141490000Y-54640001D01*
X141490000Y-54639999D01*
X141492408Y-54590990D01*
X141499607Y-54542454D01*
X141511530Y-54494857D01*
X141528060Y-54448657D01*
X141549039Y-54404301D01*
X141574265Y-54362214D01*
X141603495Y-54322802D01*
X141636447Y-54286446D01*
X141672803Y-54253494D01*
X141712215Y-54224264D01*
X141754302Y-54199038D01*
X141798658Y-54178059D01*
X141844858Y-54161529D01*
X141892455Y-54149606D01*
X141940991Y-54142407D01*
X141990000Y-54139999D01*
X142490000Y-54139999D01*
X142539009Y-54142407D01*
X142539009Y-54142407D01*
G37*
D14*
G04 #@! TD*
G04 #@! TO.P,JP16,1*
G04 #@! TO.N,+5V*
X142240000Y-54640000D03*
D13*
G04 #@! TO.P,JP16,1*
G04 #@! TO.N,+5V*
X142240000Y-54340000D03*
D15*
G04 #@! TO.P,JP16,2*
G04 #@! TO.N,A16*
X142240000Y-53340000D03*
D10*
G04 #@! TD*
G04 #@! TO.N,GND*
G04 #@! TO.C,JP16*
G36*
X142539009Y-51542407D02*
X142587545Y-51549606D01*
X142635142Y-51561529D01*
X142681342Y-51578059D01*
X142725698Y-51599038D01*
X142767785Y-51624264D01*
X142807197Y-51653494D01*
X142843553Y-51686446D01*
X142876505Y-51722802D01*
X142905735Y-51762214D01*
X142930961Y-51804301D01*
X142951940Y-51848657D01*
X142968470Y-51894857D01*
X142980393Y-51942454D01*
X142987592Y-51990990D01*
X142990000Y-52039999D01*
X142990000Y-52040001D01*
X142987592Y-52089010D01*
X142980393Y-52137546D01*
X142968470Y-52185143D01*
X142951940Y-52231343D01*
X142930961Y-52275699D01*
X142905735Y-52317786D01*
X142876505Y-52357198D01*
X142843553Y-52393554D01*
X142807197Y-52426506D01*
X142767785Y-52455736D01*
X142725698Y-52480962D01*
X142681342Y-52501941D01*
X142635142Y-52518471D01*
X142587545Y-52530394D01*
X142539009Y-52537593D01*
X142490000Y-52540001D01*
X141990000Y-52540001D01*
X141940991Y-52537593D01*
X141892455Y-52530394D01*
X141844858Y-52518471D01*
X141798658Y-52501941D01*
X141754302Y-52480962D01*
X141712215Y-52455736D01*
X141672803Y-52426506D01*
X141636447Y-52393554D01*
X141603495Y-52357198D01*
X141574265Y-52317786D01*
X141549039Y-52275699D01*
X141528060Y-52231343D01*
X141511530Y-52185143D01*
X141499607Y-52137546D01*
X141492408Y-52089010D01*
X141490000Y-52040001D01*
X141490000Y-52039999D01*
X141492408Y-51990990D01*
X141499607Y-51942454D01*
X141511530Y-51894857D01*
X141528060Y-51848657D01*
X141549039Y-51804301D01*
X141574265Y-51762214D01*
X141603495Y-51722802D01*
X141636447Y-51686446D01*
X141672803Y-51653494D01*
X141712215Y-51624264D01*
X141754302Y-51599038D01*
X141798658Y-51578059D01*
X141844858Y-51561529D01*
X141892455Y-51549606D01*
X141940991Y-51542407D01*
X141990000Y-51539999D01*
X142490000Y-51539999D01*
X142539009Y-51542407D01*
X142539009Y-51542407D01*
G37*
D14*
G04 #@! TO.P,JP16,3*
G04 #@! TO.N,GND*
X142240000Y-52040000D03*
D13*
X142240000Y-52340000D03*
G04 #@! TD*
D12*
G04 #@! TO.P,R1,1*
G04 #@! TO.N,Net-(D1-Pad1)*
X141605000Y-66910000D03*
G04 #@! TO.P,R1,2*
G04 #@! TO.N,GND*
X141605000Y-63900000D03*
G04 #@! TD*
D16*
G04 #@! TO.P,U1,1*
G04 #@! TO.N,A11*
X128905000Y-59447500D03*
G04 #@! TO.P,U1,2*
G04 #@! TO.N,A9*
X127635000Y-59447500D03*
G04 #@! TO.P,U1,3*
G04 #@! TO.N,A8*
X126365000Y-59447500D03*
G04 #@! TO.P,U1,4*
G04 #@! TO.N,A13*
X125095000Y-59447500D03*
G04 #@! TO.P,U1,32*
G04 #@! TO.N,Net-(J2-Pad1)*
X130175000Y-59447500D03*
G04 #@! TO.P,U1,31*
G04 #@! TO.N,A10*
X131445000Y-59447500D03*
G04 #@! TO.P,U1,30*
G04 #@! TO.N,Net-(JPCE1-Pad1)*
X132715000Y-59447500D03*
G04 #@! TO.P,U1,29*
G04 #@! TO.N,D7*
X133985000Y-59447500D03*
D17*
G04 #@! TO.P,U1,5*
G04 #@! TO.N,A14*
X124217500Y-61595000D03*
G04 #@! TO.P,U1,6*
G04 #@! TO.N,N/C*
X124217500Y-62865000D03*
G04 #@! TO.P,U1,7*
G04 #@! TO.N,Net-(J2-Pad2)*
X124217500Y-64135000D03*
G04 #@! TO.P,U1,8*
G04 #@! TO.N,+5V*
X124217500Y-65405000D03*
G04 #@! TO.P,U1,9*
G04 #@! TO.N,N/C*
X124217500Y-66675000D03*
G04 #@! TO.P,U1,10*
G04 #@! TO.N,A16*
X124217500Y-67945000D03*
G04 #@! TO.P,U1,11*
G04 #@! TO.N,A15*
X124217500Y-69215000D03*
G04 #@! TO.P,U1,12*
G04 #@! TO.N,A12*
X124217500Y-70485000D03*
D16*
G04 #@! TO.P,U1,13*
G04 #@! TO.N,A7*
X125095000Y-72632500D03*
G04 #@! TO.P,U1,14*
G04 #@! TO.N,A6*
X126365000Y-72632500D03*
G04 #@! TO.P,U1,15*
G04 #@! TO.N,A5*
X127635000Y-72632500D03*
G04 #@! TO.P,U1,16*
G04 #@! TO.N,A4*
X128905000Y-72632500D03*
G04 #@! TO.P,U1,17*
G04 #@! TO.N,A3*
X130175000Y-72632500D03*
G04 #@! TO.P,U1,18*
G04 #@! TO.N,A2*
X131445000Y-72632500D03*
G04 #@! TO.P,U1,19*
G04 #@! TO.N,A1*
X132715000Y-72632500D03*
G04 #@! TO.P,U1,20*
G04 #@! TO.N,A0*
X133985000Y-72632500D03*
D17*
G04 #@! TO.P,U1,21*
G04 #@! TO.N,D0*
X134862500Y-70485000D03*
G04 #@! TO.P,U1,22*
G04 #@! TO.N,D1*
X134862500Y-69215000D03*
G04 #@! TO.P,U1,23*
G04 #@! TO.N,D2*
X134862500Y-67945000D03*
G04 #@! TO.P,U1,24*
G04 #@! TO.N,GND*
X134862500Y-66675000D03*
G04 #@! TO.P,U1,25*
G04 #@! TO.N,D3*
X134862500Y-65405000D03*
G04 #@! TO.P,U1,26*
G04 #@! TO.N,D4*
X134862500Y-64135000D03*
G04 #@! TO.P,U1,27*
G04 #@! TO.N,D5*
X134862500Y-62865000D03*
G04 #@! TO.P,U1,28*
G04 #@! TO.N,D6*
X134862500Y-61595000D03*
G04 #@! TD*
D18*
G04 #@! TO.P,J2,1*
G04 #@! TO.N,Net-(J2-Pad1)*
X115570000Y-52070000D03*
D19*
G04 #@! TO.P,J2,2*
G04 #@! TO.N,Net-(J2-Pad2)*
X118110000Y-52070000D03*
G04 #@! TO.P,J2,3*
G04 #@! TO.N,A14*
X120650000Y-52070000D03*
G04 #@! TO.P,J2,4*
G04 #@! TO.N,A15*
X123190000Y-52070000D03*
G04 #@! TO.P,J2,5*
G04 #@! TO.N,A16*
X125730000Y-52070000D03*
G04 #@! TD*
D20*
G04 #@! TO.P,JPOE1,2*
G04 #@! TO.N,GND*
X119710000Y-63500000D03*
G04 #@! TO.P,JPOE1,1*
G04 #@! TO.N,Net-(J2-Pad1)*
X118910000Y-63500000D03*
D10*
G04 #@! TD*
G04 #@! TO.N,Net-(J2-Pad1)*
G04 #@! TO.C,JPOE1*
G36*
X118709010Y-62752408D02*
X118757546Y-62759607D01*
X118805143Y-62771530D01*
X118851343Y-62788060D01*
X118895699Y-62809039D01*
X118937786Y-62834265D01*
X118977198Y-62863495D01*
X119013554Y-62896447D01*
X119046506Y-62932803D01*
X119075736Y-62972215D01*
X119100962Y-63014302D01*
X119121941Y-63058658D01*
X119138471Y-63104858D01*
X119150394Y-63152455D01*
X119157593Y-63200991D01*
X119160001Y-63250000D01*
X119160001Y-63750000D01*
X119157593Y-63799009D01*
X119150394Y-63847545D01*
X119138471Y-63895142D01*
X119121941Y-63941342D01*
X119100962Y-63985698D01*
X119075736Y-64027785D01*
X119046506Y-64067197D01*
X119013554Y-64103553D01*
X118977198Y-64136505D01*
X118937786Y-64165735D01*
X118895699Y-64190961D01*
X118851343Y-64211940D01*
X118805143Y-64228470D01*
X118757546Y-64240393D01*
X118709010Y-64247592D01*
X118660001Y-64250000D01*
X118659999Y-64250000D01*
X118610990Y-64247592D01*
X118562454Y-64240393D01*
X118514857Y-64228470D01*
X118468657Y-64211940D01*
X118424301Y-64190961D01*
X118382214Y-64165735D01*
X118342802Y-64136505D01*
X118306446Y-64103553D01*
X118273494Y-64067197D01*
X118244264Y-64027785D01*
X118219038Y-63985698D01*
X118198059Y-63941342D01*
X118181529Y-63895142D01*
X118169606Y-63847545D01*
X118162407Y-63799009D01*
X118159999Y-63750000D01*
X118159999Y-63250000D01*
X118162407Y-63200991D01*
X118169606Y-63152455D01*
X118181529Y-63104858D01*
X118198059Y-63058658D01*
X118219038Y-63014302D01*
X118244264Y-62972215D01*
X118273494Y-62932803D01*
X118306446Y-62896447D01*
X118342802Y-62863495D01*
X118382214Y-62834265D01*
X118424301Y-62809039D01*
X118468657Y-62788060D01*
X118514857Y-62771530D01*
X118562454Y-62759607D01*
X118610990Y-62752408D01*
X118659999Y-62750000D01*
X118660001Y-62750000D01*
X118709010Y-62752408D01*
X118709010Y-62752408D01*
G37*
D14*
G04 #@! TO.P,JPOE1,1*
G04 #@! TO.N,Net-(J2-Pad1)*
X118660000Y-63500000D03*
D10*
G04 #@! TD*
G04 #@! TO.N,GND*
G04 #@! TO.C,JPOE1*
G36*
X120009010Y-62752408D02*
X120057546Y-62759607D01*
X120105143Y-62771530D01*
X120151343Y-62788060D01*
X120195699Y-62809039D01*
X120237786Y-62834265D01*
X120277198Y-62863495D01*
X120313554Y-62896447D01*
X120346506Y-62932803D01*
X120375736Y-62972215D01*
X120400962Y-63014302D01*
X120421941Y-63058658D01*
X120438471Y-63104858D01*
X120450394Y-63152455D01*
X120457593Y-63200991D01*
X120460001Y-63250000D01*
X120460001Y-63750000D01*
X120457593Y-63799009D01*
X120450394Y-63847545D01*
X120438471Y-63895142D01*
X120421941Y-63941342D01*
X120400962Y-63985698D01*
X120375736Y-64027785D01*
X120346506Y-64067197D01*
X120313554Y-64103553D01*
X120277198Y-64136505D01*
X120237786Y-64165735D01*
X120195699Y-64190961D01*
X120151343Y-64211940D01*
X120105143Y-64228470D01*
X120057546Y-64240393D01*
X120009010Y-64247592D01*
X119960001Y-64250000D01*
X119959999Y-64250000D01*
X119910990Y-64247592D01*
X119862454Y-64240393D01*
X119814857Y-64228470D01*
X119768657Y-64211940D01*
X119724301Y-64190961D01*
X119682214Y-64165735D01*
X119642802Y-64136505D01*
X119606446Y-64103553D01*
X119573494Y-64067197D01*
X119544264Y-64027785D01*
X119519038Y-63985698D01*
X119498059Y-63941342D01*
X119481529Y-63895142D01*
X119469606Y-63847545D01*
X119462407Y-63799009D01*
X119459999Y-63750000D01*
X119459999Y-63250000D01*
X119462407Y-63200991D01*
X119469606Y-63152455D01*
X119481529Y-63104858D01*
X119498059Y-63058658D01*
X119519038Y-63014302D01*
X119544264Y-62972215D01*
X119573494Y-62932803D01*
X119606446Y-62896447D01*
X119642802Y-62863495D01*
X119682214Y-62834265D01*
X119724301Y-62809039D01*
X119768657Y-62788060D01*
X119814857Y-62771530D01*
X119862454Y-62759607D01*
X119910990Y-62752408D01*
X119959999Y-62750000D01*
X119960001Y-62750000D01*
X120009010Y-62752408D01*
X120009010Y-62752408D01*
G37*
D14*
G04 #@! TO.P,JPOE1,2*
G04 #@! TO.N,GND*
X119960000Y-63500000D03*
G04 #@! TD*
D10*
G04 #@! TO.N,Net-(J2-Pad2)*
G04 #@! TO.C,JPWR1*
G36*
X118779010Y-66562408D02*
X118827546Y-66569607D01*
X118875143Y-66581530D01*
X118921343Y-66598060D01*
X118965699Y-66619039D01*
X119007786Y-66644265D01*
X119047198Y-66673495D01*
X119083554Y-66706447D01*
X119116506Y-66742803D01*
X119145736Y-66782215D01*
X119170962Y-66824302D01*
X119191941Y-66868658D01*
X119208471Y-66914858D01*
X119220394Y-66962455D01*
X119227593Y-67010991D01*
X119230001Y-67060000D01*
X119230001Y-67560000D01*
X119227593Y-67609009D01*
X119220394Y-67657545D01*
X119208471Y-67705142D01*
X119191941Y-67751342D01*
X119170962Y-67795698D01*
X119145736Y-67837785D01*
X119116506Y-67877197D01*
X119083554Y-67913553D01*
X119047198Y-67946505D01*
X119007786Y-67975735D01*
X118965699Y-68000961D01*
X118921343Y-68021940D01*
X118875143Y-68038470D01*
X118827546Y-68050393D01*
X118779010Y-68057592D01*
X118730001Y-68060000D01*
X118729999Y-68060000D01*
X118680990Y-68057592D01*
X118632454Y-68050393D01*
X118584857Y-68038470D01*
X118538657Y-68021940D01*
X118494301Y-68000961D01*
X118452214Y-67975735D01*
X118412802Y-67946505D01*
X118376446Y-67913553D01*
X118343494Y-67877197D01*
X118314264Y-67837785D01*
X118289038Y-67795698D01*
X118268059Y-67751342D01*
X118251529Y-67705142D01*
X118239606Y-67657545D01*
X118232407Y-67609009D01*
X118229999Y-67560000D01*
X118229999Y-67060000D01*
X118232407Y-67010991D01*
X118239606Y-66962455D01*
X118251529Y-66914858D01*
X118268059Y-66868658D01*
X118289038Y-66824302D01*
X118314264Y-66782215D01*
X118343494Y-66742803D01*
X118376446Y-66706447D01*
X118412802Y-66673495D01*
X118452214Y-66644265D01*
X118494301Y-66619039D01*
X118538657Y-66598060D01*
X118584857Y-66581530D01*
X118632454Y-66569607D01*
X118680990Y-66562408D01*
X118729999Y-66560000D01*
X118730001Y-66560000D01*
X118779010Y-66562408D01*
X118779010Y-66562408D01*
G37*
D14*
G04 #@! TD*
G04 #@! TO.P,JPWR1,2*
G04 #@! TO.N,Net-(J2-Pad2)*
X118730000Y-67310000D03*
D10*
G04 #@! TO.N,+5V*
G04 #@! TO.C,JPWR1*
G36*
X120079010Y-66562408D02*
X120127546Y-66569607D01*
X120175143Y-66581530D01*
X120221343Y-66598060D01*
X120265699Y-66619039D01*
X120307786Y-66644265D01*
X120347198Y-66673495D01*
X120383554Y-66706447D01*
X120416506Y-66742803D01*
X120445736Y-66782215D01*
X120470962Y-66824302D01*
X120491941Y-66868658D01*
X120508471Y-66914858D01*
X120520394Y-66962455D01*
X120527593Y-67010991D01*
X120530001Y-67060000D01*
X120530001Y-67560000D01*
X120527593Y-67609009D01*
X120520394Y-67657545D01*
X120508471Y-67705142D01*
X120491941Y-67751342D01*
X120470962Y-67795698D01*
X120445736Y-67837785D01*
X120416506Y-67877197D01*
X120383554Y-67913553D01*
X120347198Y-67946505D01*
X120307786Y-67975735D01*
X120265699Y-68000961D01*
X120221343Y-68021940D01*
X120175143Y-68038470D01*
X120127546Y-68050393D01*
X120079010Y-68057592D01*
X120030001Y-68060000D01*
X120029999Y-68060000D01*
X119980990Y-68057592D01*
X119932454Y-68050393D01*
X119884857Y-68038470D01*
X119838657Y-68021940D01*
X119794301Y-68000961D01*
X119752214Y-67975735D01*
X119712802Y-67946505D01*
X119676446Y-67913553D01*
X119643494Y-67877197D01*
X119614264Y-67837785D01*
X119589038Y-67795698D01*
X119568059Y-67751342D01*
X119551529Y-67705142D01*
X119539606Y-67657545D01*
X119532407Y-67609009D01*
X119529999Y-67560000D01*
X119529999Y-67060000D01*
X119532407Y-67010991D01*
X119539606Y-66962455D01*
X119551529Y-66914858D01*
X119568059Y-66868658D01*
X119589038Y-66824302D01*
X119614264Y-66782215D01*
X119643494Y-66742803D01*
X119676446Y-66706447D01*
X119712802Y-66673495D01*
X119752214Y-66644265D01*
X119794301Y-66619039D01*
X119838657Y-66598060D01*
X119884857Y-66581530D01*
X119932454Y-66569607D01*
X119980990Y-66562408D01*
X120029999Y-66560000D01*
X120030001Y-66560000D01*
X120079010Y-66562408D01*
X120079010Y-66562408D01*
G37*
D14*
G04 #@! TD*
G04 #@! TO.P,JPWR1,1*
G04 #@! TO.N,+5V*
X120030000Y-67310000D03*
D20*
G04 #@! TO.P,JPWR1,1*
G04 #@! TO.N,+5V*
X119780000Y-67310000D03*
G04 #@! TO.P,JPWR1,2*
G04 #@! TO.N,Net-(J2-Pad2)*
X118980000Y-67310000D03*
G04 #@! TD*
D10*
G04 #@! TO.N,Net-(D1-Pad1)*
G04 #@! TO.C,JPCE1*
G36*
X120079010Y-70372408D02*
X120127546Y-70379607D01*
X120175143Y-70391530D01*
X120221343Y-70408060D01*
X120265699Y-70429039D01*
X120307786Y-70454265D01*
X120347198Y-70483495D01*
X120383554Y-70516447D01*
X120416506Y-70552803D01*
X120445736Y-70592215D01*
X120470962Y-70634302D01*
X120491941Y-70678658D01*
X120508471Y-70724858D01*
X120520394Y-70772455D01*
X120527593Y-70820991D01*
X120530001Y-70870000D01*
X120530001Y-71370000D01*
X120527593Y-71419009D01*
X120520394Y-71467545D01*
X120508471Y-71515142D01*
X120491941Y-71561342D01*
X120470962Y-71605698D01*
X120445736Y-71647785D01*
X120416506Y-71687197D01*
X120383554Y-71723553D01*
X120347198Y-71756505D01*
X120307786Y-71785735D01*
X120265699Y-71810961D01*
X120221343Y-71831940D01*
X120175143Y-71848470D01*
X120127546Y-71860393D01*
X120079010Y-71867592D01*
X120030001Y-71870000D01*
X120029999Y-71870000D01*
X119980990Y-71867592D01*
X119932454Y-71860393D01*
X119884857Y-71848470D01*
X119838657Y-71831940D01*
X119794301Y-71810961D01*
X119752214Y-71785735D01*
X119712802Y-71756505D01*
X119676446Y-71723553D01*
X119643494Y-71687197D01*
X119614264Y-71647785D01*
X119589038Y-71605698D01*
X119568059Y-71561342D01*
X119551529Y-71515142D01*
X119539606Y-71467545D01*
X119532407Y-71419009D01*
X119529999Y-71370000D01*
X119529999Y-70870000D01*
X119532407Y-70820991D01*
X119539606Y-70772455D01*
X119551529Y-70724858D01*
X119568059Y-70678658D01*
X119589038Y-70634302D01*
X119614264Y-70592215D01*
X119643494Y-70552803D01*
X119676446Y-70516447D01*
X119712802Y-70483495D01*
X119752214Y-70454265D01*
X119794301Y-70429039D01*
X119838657Y-70408060D01*
X119884857Y-70391530D01*
X119932454Y-70379607D01*
X119980990Y-70372408D01*
X120029999Y-70370000D01*
X120030001Y-70370000D01*
X120079010Y-70372408D01*
X120079010Y-70372408D01*
G37*
D14*
G04 #@! TD*
G04 #@! TO.P,JPCE1,2*
G04 #@! TO.N,Net-(D1-Pad1)*
X120030000Y-71120000D03*
D10*
G04 #@! TO.N,Net-(JPCE1-Pad1)*
G04 #@! TO.C,JPCE1*
G36*
X118779010Y-70372408D02*
X118827546Y-70379607D01*
X118875143Y-70391530D01*
X118921343Y-70408060D01*
X118965699Y-70429039D01*
X119007786Y-70454265D01*
X119047198Y-70483495D01*
X119083554Y-70516447D01*
X119116506Y-70552803D01*
X119145736Y-70592215D01*
X119170962Y-70634302D01*
X119191941Y-70678658D01*
X119208471Y-70724858D01*
X119220394Y-70772455D01*
X119227593Y-70820991D01*
X119230001Y-70870000D01*
X119230001Y-71370000D01*
X119227593Y-71419009D01*
X119220394Y-71467545D01*
X119208471Y-71515142D01*
X119191941Y-71561342D01*
X119170962Y-71605698D01*
X119145736Y-71647785D01*
X119116506Y-71687197D01*
X119083554Y-71723553D01*
X119047198Y-71756505D01*
X119007786Y-71785735D01*
X118965699Y-71810961D01*
X118921343Y-71831940D01*
X118875143Y-71848470D01*
X118827546Y-71860393D01*
X118779010Y-71867592D01*
X118730001Y-71870000D01*
X118729999Y-71870000D01*
X118680990Y-71867592D01*
X118632454Y-71860393D01*
X118584857Y-71848470D01*
X118538657Y-71831940D01*
X118494301Y-71810961D01*
X118452214Y-71785735D01*
X118412802Y-71756505D01*
X118376446Y-71723553D01*
X118343494Y-71687197D01*
X118314264Y-71647785D01*
X118289038Y-71605698D01*
X118268059Y-71561342D01*
X118251529Y-71515142D01*
X118239606Y-71467545D01*
X118232407Y-71419009D01*
X118229999Y-71370000D01*
X118229999Y-70870000D01*
X118232407Y-70820991D01*
X118239606Y-70772455D01*
X118251529Y-70724858D01*
X118268059Y-70678658D01*
X118289038Y-70634302D01*
X118314264Y-70592215D01*
X118343494Y-70552803D01*
X118376446Y-70516447D01*
X118412802Y-70483495D01*
X118452214Y-70454265D01*
X118494301Y-70429039D01*
X118538657Y-70408060D01*
X118584857Y-70391530D01*
X118632454Y-70379607D01*
X118680990Y-70372408D01*
X118729999Y-70370000D01*
X118730001Y-70370000D01*
X118779010Y-70372408D01*
X118779010Y-70372408D01*
G37*
D14*
G04 #@! TD*
G04 #@! TO.P,JPCE1,1*
G04 #@! TO.N,Net-(JPCE1-Pad1)*
X118730000Y-71120000D03*
D20*
G04 #@! TO.P,JPCE1,1*
G04 #@! TO.N,Net-(JPCE1-Pad1)*
X118980000Y-71120000D03*
G04 #@! TO.P,JPCE1,2*
G04 #@! TO.N,Net-(D1-Pad1)*
X119780000Y-71120000D03*
G04 #@! TD*
D21*
G04 #@! TO.N,Net-(D1-Pad1)*
X137799100Y-69154200D03*
X122433700Y-71802900D03*
G04 #@! TO.N,Net-(D1-Pad2)*
X137873500Y-71878200D03*
G04 #@! TO.N,Net-(D2-Pad2)*
X138945000Y-72875300D03*
G04 #@! TO.N,Net-(D3-Pad2)*
X141035800Y-74401800D03*
G04 #@! TO.N,D3*
X138978300Y-65638200D03*
G04 #@! TO.N,D4*
X138184500Y-64549000D03*
G04 #@! TO.N,D5*
X136701400Y-63072000D03*
G04 #@! TO.N,D6*
X136426400Y-61595000D03*
G04 #@! TO.N,D7*
X139208200Y-78149500D03*
G04 #@! TO.N,A10*
X131370800Y-61053100D03*
G04 #@! TO.N,A11*
X129915000Y-69460900D03*
G04 #@! TO.N,A9*
X128914600Y-69496500D03*
G04 #@! TO.N,A8*
X127641300Y-69487400D03*
G04 #@! TO.N,A13*
X126684600Y-70367500D03*
G04 #@! TO.N,+5V*
X132974100Y-54692200D03*
X114332000Y-78658000D03*
G04 #@! TO.N,A14*
X123069900Y-60618100D03*
G04 #@! TO.N,A15*
X122654200Y-68964500D03*
X136476900Y-53638900D03*
G04 #@! TO.N,A16*
X140470900Y-53725000D03*
X125890700Y-66025700D03*
G04 #@! TD*
D22*
G04 #@! TO.N,Net-(D1-Pad1)*
X140354700Y-68980000D02*
X137973300Y-68980000D01*
X137973300Y-68980000D02*
X137799100Y-69154200D01*
X141605000Y-68980000D02*
X140354700Y-68980000D01*
X120030000Y-71120000D02*
X121750800Y-71120000D01*
X121750800Y-71120000D02*
X122433700Y-71802900D01*
X119780000Y-71120000D02*
X120030000Y-71120000D01*
X141605000Y-66910000D02*
X141605000Y-67795300D01*
X141605000Y-67795300D02*
X141605000Y-68094700D01*
X141605000Y-68980000D02*
X141605000Y-68094700D01*
X141605000Y-68980000D02*
X143529700Y-68980000D01*
X144780000Y-68980000D02*
X143529700Y-68980000D01*
X144780000Y-68980000D02*
X146514200Y-68980000D01*
X146514200Y-68980000D02*
X146577700Y-69043500D01*
X147828000Y-69043500D02*
X146577700Y-69043500D01*
G04 #@! TO.N,Net-(D1-Pad2)*
X141605000Y-71990000D02*
X140354700Y-71990000D01*
X137873500Y-71878200D02*
X140242900Y-71878200D01*
X140242900Y-71878200D02*
X140354700Y-71990000D01*
G04 #@! TO.N,Net-(D2-Pad2)*
X144780000Y-72875300D02*
X138945000Y-72875300D01*
X144780000Y-71990000D02*
X144780000Y-72875300D01*
G04 #@! TO.N,Net-(D3-Pad2)*
X147828000Y-72938800D02*
X146365000Y-74401800D01*
X146365000Y-74401800D02*
X141035800Y-74401800D01*
X147828000Y-72053500D02*
X147828000Y-72938800D01*
G04 #@! TO.N,D3*
X134862500Y-65405000D02*
X136175300Y-65405000D01*
X136175300Y-65405000D02*
X136408500Y-65638200D01*
X136408500Y-65638200D02*
X138978300Y-65638200D01*
G04 #@! TO.N,D4*
X136175300Y-64135000D02*
X136589300Y-64549000D01*
X136589300Y-64549000D02*
X138184500Y-64549000D01*
X134862500Y-64135000D02*
X136175300Y-64135000D01*
G04 #@! TO.N,D5*
X134862500Y-62865000D02*
X136494400Y-62865000D01*
X136494400Y-62865000D02*
X136701400Y-63072000D01*
G04 #@! TO.N,D6*
X134862500Y-61595000D02*
X136426400Y-61595000D01*
G04 #@! TO.N,D7*
X133985000Y-60760300D02*
X133872400Y-60760300D01*
X133872400Y-60760300D02*
X133534900Y-61097800D01*
X133534900Y-61097800D02*
X133534900Y-70973300D01*
X133534900Y-70973300D02*
X133747000Y-71185400D01*
X133747000Y-71185400D02*
X134356000Y-71185400D01*
X134356000Y-71185400D02*
X135238200Y-72067600D01*
X135238200Y-72067600D02*
X135238200Y-74179500D01*
X135238200Y-74179500D02*
X139208200Y-78149500D01*
X133985000Y-59447500D02*
X133985000Y-60760300D01*
G04 #@! TO.N,A10*
X131445000Y-60760300D02*
X131370800Y-60834500D01*
X131370800Y-60834500D02*
X131370800Y-61053100D01*
X131445000Y-59447500D02*
X131445000Y-60760300D01*
G04 #@! TO.N,A11*
X128905000Y-60760300D02*
X129915000Y-61770300D01*
X129915000Y-61770300D02*
X129915000Y-69460900D01*
X128905000Y-59447500D02*
X128905000Y-60760300D01*
G04 #@! TO.N,A9*
X127635000Y-60760300D02*
X128914600Y-62039900D01*
X128914600Y-62039900D02*
X128914600Y-69496500D01*
X127635000Y-59447500D02*
X127635000Y-60760300D01*
G04 #@! TO.N,A8*
X126365000Y-59447500D02*
X126365000Y-60760300D01*
X126365000Y-60760300D02*
X127641300Y-62036600D01*
X127641300Y-62036600D02*
X127641300Y-69487400D01*
G04 #@! TO.N,A13*
X125095000Y-59447500D02*
X125095000Y-60760300D01*
X125095000Y-60760300D02*
X125203800Y-60760300D01*
X125203800Y-60760300D02*
X126684600Y-62241100D01*
X126684600Y-62241100D02*
X126684600Y-70367500D01*
G04 #@! TO.N,+5V*
X139530300Y-54340000D02*
X139665600Y-54475300D01*
X139665600Y-54475300D02*
X141004400Y-54475300D01*
X141004400Y-54475300D02*
X141139700Y-54340000D01*
X119780000Y-67310000D02*
X119780000Y-68410300D01*
X119780000Y-67310000D02*
X120030000Y-67310000D01*
X119780000Y-68410300D02*
X119205500Y-68410300D01*
X119205500Y-68410300D02*
X114332000Y-73283800D01*
X114332000Y-73283800D02*
X114332000Y-78658000D01*
X134620000Y-54340000D02*
X133519700Y-54340000D01*
X132974100Y-54692200D02*
X133167500Y-54692200D01*
X133167500Y-54692200D02*
X133519700Y-54340000D01*
X124217500Y-65405000D02*
X122904700Y-65405000D01*
X120030000Y-67310000D02*
X121935000Y-65405000D01*
X121935000Y-65405000D02*
X122904700Y-65405000D01*
X134620000Y-54340000D02*
X135720300Y-54340000D01*
X135720300Y-54340000D02*
X135769500Y-54389200D01*
X135769500Y-54389200D02*
X137280500Y-54389200D01*
X137280500Y-54389200D02*
X137329700Y-54340000D01*
X142240000Y-54340000D02*
X141139700Y-54340000D01*
X134620000Y-54640000D02*
X134620000Y-54340000D01*
X114332000Y-78658000D02*
X114300000Y-78690000D01*
X114300000Y-78690000D02*
X114300000Y-83820000D01*
X138430000Y-54340000D02*
X139530300Y-54340000D01*
X142240000Y-54340000D02*
X142240000Y-54640000D01*
X138130000Y-54340000D02*
X138430000Y-54640000D01*
X138430000Y-54340000D02*
X138130000Y-54340000D01*
X137879900Y-54340000D02*
X137329700Y-54340000D01*
X137879900Y-54340000D02*
X138130000Y-54340000D01*
G04 #@! TO.N,GND*
X141605000Y-63900000D02*
X141605000Y-63014700D01*
X140764800Y-57629500D02*
X143358100Y-55036200D01*
X143358100Y-55036200D02*
X143358100Y-52357800D01*
X143358100Y-52357800D02*
X143340300Y-52340000D01*
X119960000Y-63500000D02*
X119960000Y-61911500D01*
X119960000Y-61911500D02*
X124242000Y-57629500D01*
X124242000Y-57629500D02*
X140764800Y-57629500D01*
X140764800Y-57629500D02*
X140764800Y-62174500D01*
X140764800Y-62174500D02*
X141605000Y-63014700D01*
X141605000Y-64495900D02*
X145260300Y-64495900D01*
X145260300Y-64495900D02*
X149860000Y-69095600D01*
X149860000Y-69095600D02*
X149860000Y-83820000D01*
X141605000Y-64342600D02*
X141605000Y-64495900D01*
X141605000Y-64495900D02*
X139425900Y-66675000D01*
X139425900Y-66675000D02*
X134862500Y-66675000D01*
X141605000Y-63900000D02*
X141605000Y-64342600D01*
X142240000Y-52340000D02*
X143340300Y-52340000D01*
X119960000Y-63500000D02*
X119710000Y-63500000D01*
X142240000Y-52340000D02*
X142240000Y-52040000D01*
X142240000Y-52040000D02*
X138430000Y-52040000D01*
X134620000Y-52340000D02*
X135720300Y-52340000D01*
X137329700Y-52340000D02*
X135720300Y-52340000D01*
X138130000Y-52340000D02*
X138430000Y-52040000D01*
X138430000Y-52340000D02*
X138130000Y-52340000D01*
X137879900Y-52340000D02*
X137329700Y-52340000D01*
X137879900Y-52340000D02*
X138130000Y-52340000D01*
X134620000Y-52040000D02*
X134620000Y-52340000D01*
G04 #@! TO.N,D2*
X147320000Y-83820000D02*
X147320000Y-79659700D01*
X134862500Y-67945000D02*
X136175300Y-67945000D01*
X136175300Y-67945000D02*
X136953100Y-68722800D01*
X136953100Y-68722800D02*
X136953100Y-72018800D01*
X136953100Y-72018800D02*
X144594000Y-79659700D01*
X144594000Y-79659700D02*
X147320000Y-79659700D01*
G04 #@! TO.N,D1*
X136175300Y-69215000D02*
X136452700Y-69492400D01*
X136452700Y-69492400D02*
X136452700Y-72505500D01*
X136452700Y-72505500D02*
X144780000Y-80832800D01*
X144780000Y-80832800D02*
X144780000Y-83820000D01*
X134862500Y-69215000D02*
X136175300Y-69215000D01*
G04 #@! TO.N,D0*
X142240000Y-83820000D02*
X142240000Y-79659700D01*
X134862500Y-70485000D02*
X135738600Y-71361100D01*
X135738600Y-71361100D02*
X135738600Y-73158300D01*
X135738600Y-73158300D02*
X142240000Y-79659700D01*
G04 #@! TO.N,A0*
X139700000Y-79659700D02*
X139601700Y-79659700D01*
X139601700Y-79659700D02*
X133985000Y-74043000D01*
X133985000Y-74043000D02*
X133985000Y-72632500D01*
X139700000Y-83820000D02*
X139700000Y-79659700D01*
G04 #@! TO.N,A1*
X137160000Y-83820000D02*
X137160000Y-79659700D01*
X132715000Y-72632500D02*
X132715000Y-75214700D01*
X132715000Y-75214700D02*
X137160000Y-79659700D01*
G04 #@! TO.N,A2*
X131445000Y-72632500D02*
X131445000Y-75820500D01*
X131445000Y-75820500D02*
X134620000Y-78995500D01*
X134620000Y-78995500D02*
X134620000Y-83820000D01*
G04 #@! TO.N,A3*
X130175000Y-72632500D02*
X130175000Y-75258200D01*
X130175000Y-75258200D02*
X132080000Y-77163200D01*
X132080000Y-77163200D02*
X132080000Y-83820000D01*
G04 #@! TO.N,A4*
X129540000Y-83820000D02*
X129540000Y-79659700D01*
X128905000Y-72632500D02*
X128905000Y-79024700D01*
X128905000Y-79024700D02*
X129540000Y-79659700D01*
G04 #@! TO.N,A5*
X127000000Y-83820000D02*
X127000000Y-79659700D01*
X127635000Y-72632500D02*
X127635000Y-79024700D01*
X127635000Y-79024700D02*
X127000000Y-79659700D01*
G04 #@! TO.N,A6*
X121920000Y-83820000D02*
X121920000Y-79659700D01*
X126365000Y-72632500D02*
X126365000Y-75214700D01*
X126365000Y-75214700D02*
X121920000Y-79659700D01*
G04 #@! TO.N,A7*
X119380000Y-83820000D02*
X119380000Y-79659700D01*
X125095000Y-72632500D02*
X125095000Y-73945300D01*
X125095000Y-73945300D02*
X119380600Y-79659700D01*
X119380600Y-79659700D02*
X119380000Y-79659700D01*
G04 #@! TO.N,A12*
X116840000Y-79659700D02*
X116840000Y-71513100D01*
X116840000Y-71513100D02*
X118367900Y-69985200D01*
X118367900Y-69985200D02*
X122404900Y-69985200D01*
X122404900Y-69985200D02*
X122904700Y-70485000D01*
X124217500Y-70485000D02*
X122904700Y-70485000D01*
X116840000Y-83820000D02*
X116840000Y-79659700D01*
G04 #@! TO.N,A14*
X122904700Y-61595000D02*
X122904700Y-60783300D01*
X122904700Y-60783300D02*
X123069900Y-60618100D01*
X124217500Y-61595000D02*
X122904700Y-61595000D01*
X120650000Y-52070000D02*
X121850300Y-52070000D01*
X121850300Y-52070000D02*
X121850300Y-52445100D01*
X121850300Y-52445100D02*
X122745200Y-53340000D01*
X122745200Y-53340000D02*
X134620000Y-53340000D01*
G04 #@! TO.N,A15*
X122904700Y-69215000D02*
X122654200Y-68964500D01*
X124217500Y-69215000D02*
X122904700Y-69215000D01*
X138430000Y-53340000D02*
X137329700Y-53340000D01*
X136476900Y-53638900D02*
X137030800Y-53638900D01*
X137030800Y-53638900D02*
X137329700Y-53340000D01*
G04 #@! TO.N,A16*
X142240000Y-53340000D02*
X141139700Y-53340000D01*
X140470900Y-53725000D02*
X140754700Y-53725000D01*
X140754700Y-53725000D02*
X141139700Y-53340000D01*
X125890700Y-66025700D02*
X125890700Y-67584600D01*
X125890700Y-67584600D02*
X125530300Y-67945000D01*
X124217500Y-67945000D02*
X125530300Y-67945000D01*
G04 #@! TO.N,Net-(J2-Pad1)*
X118910000Y-63500000D02*
X118910000Y-53170200D01*
X118910000Y-53170200D02*
X119321200Y-52759000D01*
X119321200Y-52759000D02*
X119321200Y-51562500D01*
X119321200Y-51562500D02*
X118628400Y-50869700D01*
X118628400Y-50869700D02*
X117595400Y-50869700D01*
X117595400Y-50869700D02*
X116770300Y-51694800D01*
X116770300Y-51694800D02*
X116770300Y-52070000D01*
X115570000Y-52070000D02*
X116770300Y-52070000D01*
X118660000Y-63500000D02*
X118910000Y-63500000D01*
X118910000Y-64600300D02*
X118915700Y-64606000D01*
X118915700Y-64606000D02*
X120345200Y-64606000D01*
X120345200Y-64606000D02*
X121632000Y-63319200D01*
X121632000Y-63319200D02*
X121632000Y-60969200D01*
X121632000Y-60969200D02*
X124466500Y-58134700D01*
X124466500Y-58134700D02*
X130175000Y-58134700D01*
X118910000Y-63500000D02*
X118910000Y-64600300D01*
X130175000Y-59447500D02*
X130175000Y-58134700D01*
G04 #@! TO.N,Net-(J2-Pad2)*
X118980000Y-65458400D02*
X120553900Y-65458400D01*
X120553900Y-65458400D02*
X121877300Y-64135000D01*
X121877300Y-64135000D02*
X124217500Y-64135000D01*
X118980000Y-66209700D02*
X118980000Y-65458400D01*
X118980000Y-65458400D02*
X117774700Y-64253100D01*
X117774700Y-64253100D02*
X117774700Y-60703200D01*
X117774700Y-60703200D02*
X118110000Y-60367900D01*
X118110000Y-60367900D02*
X118110000Y-52070000D01*
X118980000Y-67310000D02*
X118980000Y-66209700D01*
X118980000Y-67310000D02*
X118730000Y-67310000D01*
G04 #@! TO.N,Net-(JPCE1-Pad1)*
X118980000Y-71120000D02*
X118980000Y-72220300D01*
X118980000Y-72220300D02*
X119328800Y-72569100D01*
X119328800Y-72569100D02*
X123329000Y-72569100D01*
X123329000Y-72569100D02*
X124601900Y-71296200D01*
X124601900Y-71296200D02*
X129210300Y-71296200D01*
X129210300Y-71296200D02*
X132715000Y-67791500D01*
X132715000Y-67791500D02*
X132715000Y-59447500D01*
X118980000Y-71120000D02*
X118730000Y-71120000D01*
G04 #@! TD*
M02*
