G04 #@! TF.GenerationSoftware,KiCad,Pcbnew,5.0.0-rc2-be01b52~65~ubuntu18.04.1*
G04 #@! TF.CreationDate,2018-06-11T23:06:02+04:00*
G04 #@! TF.ProjectId,interface2_cartridge,696E74657266616365325F6361727472,rev?*
G04 #@! TF.SameCoordinates,Original*
G04 #@! TF.FileFunction,Paste,Top*
G04 #@! TF.FilePolarity,Positive*
%FSLAX46Y46*%
G04 Gerber Fmt 4.6, Leading zero omitted, Abs format (unit mm)*
G04 Created by KiCad (PCBNEW 5.0.0-rc2-be01b52~65~ubuntu18.04.1) date Mon Jun 11 23:06:02 2018*
%MOMM*%
%LPD*%
G01*
G04 APERTURE LIST*
%ADD10R,1.800000X1.070000*%
%ADD11R,0.700000X1.925000*%
%ADD12R,1.925000X0.700000*%
G04 APERTURE END LIST*
D10*
G04 #@! TO.C,D1*
X141605000Y-68980000D03*
X141605000Y-71990000D03*
G04 #@! TD*
G04 #@! TO.C,D2*
X144780000Y-71990000D03*
X144780000Y-68980000D03*
G04 #@! TD*
G04 #@! TO.C,D3*
X147828000Y-69043500D03*
X147828000Y-72053500D03*
G04 #@! TD*
G04 #@! TO.C,R1*
X141605000Y-66910000D03*
X141605000Y-63900000D03*
G04 #@! TD*
D11*
G04 #@! TO.C,U1*
X128905000Y-59447500D03*
X127635000Y-59447500D03*
X126365000Y-59447500D03*
X125095000Y-59447500D03*
X130175000Y-59447500D03*
X131445000Y-59447500D03*
X132715000Y-59447500D03*
X133985000Y-59447500D03*
D12*
X124217500Y-61595000D03*
X124217500Y-62865000D03*
X124217500Y-64135000D03*
X124217500Y-65405000D03*
X124217500Y-66675000D03*
X124217500Y-67945000D03*
X124217500Y-69215000D03*
X124217500Y-70485000D03*
D11*
X125095000Y-72632500D03*
X126365000Y-72632500D03*
X127635000Y-72632500D03*
X128905000Y-72632500D03*
X130175000Y-72632500D03*
X131445000Y-72632500D03*
X132715000Y-72632500D03*
X133985000Y-72632500D03*
D12*
X134862500Y-70485000D03*
X134862500Y-69215000D03*
X134862500Y-67945000D03*
X134862500Y-66675000D03*
X134862500Y-65405000D03*
X134862500Y-64135000D03*
X134862500Y-62865000D03*
X134862500Y-61595000D03*
G04 #@! TD*
M02*
