G04 #@! TF.GenerationSoftware,KiCad,Pcbnew,5.0.0-rc2-be01b52~65~ubuntu18.04.1*
G04 #@! TF.CreationDate,2018-06-11T23:06:02+04:00*
G04 #@! TF.ProjectId,interface2_cartridge,696E74657266616365325F6361727472,rev?*
G04 #@! TF.SameCoordinates,Original*
G04 #@! TF.FileFunction,Legend,Bot*
G04 #@! TF.FilePolarity,Positive*
%FSLAX46Y46*%
G04 Gerber Fmt 4.6, Leading zero omitted, Abs format (unit mm)*
G04 Created by KiCad (PCBNEW 5.0.0-rc2-be01b52~65~ubuntu18.04.1) date Mon Jun 11 23:06:02 2018*
%MOMM*%
%LPD*%
G01*
G04 APERTURE LIST*
%ADD10C,0.100000*%
%ADD11C,0.250000*%
%ADD12C,0.150000*%
%ADD13C,0.500000*%
G04 APERTURE END LIST*
D10*
X148705000Y-73540952D02*
X148776428Y-73493333D01*
X148812142Y-73445714D01*
X148847857Y-73350476D01*
X148847857Y-73302857D01*
X148812142Y-73207619D01*
X148776428Y-73160000D01*
X148705000Y-73112380D01*
X148562142Y-73112380D01*
X148490714Y-73160000D01*
X148455000Y-73207619D01*
X148419285Y-73302857D01*
X148419285Y-73350476D01*
X148455000Y-73445714D01*
X148490714Y-73493333D01*
X148562142Y-73540952D01*
X148705000Y-73540952D01*
X148776428Y-73588571D01*
X148812142Y-73636190D01*
X148847857Y-73731428D01*
X148847857Y-73921904D01*
X148812142Y-74017142D01*
X148776428Y-74064761D01*
X148705000Y-74112380D01*
X148562142Y-74112380D01*
X148490714Y-74064761D01*
X148455000Y-74017142D01*
X148419285Y-73921904D01*
X148419285Y-73731428D01*
X148455000Y-73636190D01*
X148490714Y-73588571D01*
X148562142Y-73540952D01*
X147276428Y-73588571D02*
X147169285Y-73636190D01*
X147133571Y-73683809D01*
X147097857Y-73779047D01*
X147097857Y-73921904D01*
X147133571Y-74017142D01*
X147169285Y-74064761D01*
X147240714Y-74112380D01*
X147526428Y-74112380D01*
X147526428Y-73112380D01*
X147276428Y-73112380D01*
X147205000Y-73160000D01*
X147169285Y-73207619D01*
X147133571Y-73302857D01*
X147133571Y-73398095D01*
X147169285Y-73493333D01*
X147205000Y-73540952D01*
X147276428Y-73588571D01*
X147526428Y-73588571D01*
X146455000Y-74112380D02*
X146455000Y-73588571D01*
X146490714Y-73493333D01*
X146562142Y-73445714D01*
X146705000Y-73445714D01*
X146776428Y-73493333D01*
X146455000Y-74064761D02*
X146526428Y-74112380D01*
X146705000Y-74112380D01*
X146776428Y-74064761D01*
X146812142Y-73969523D01*
X146812142Y-73874285D01*
X146776428Y-73779047D01*
X146705000Y-73731428D01*
X146526428Y-73731428D01*
X146455000Y-73683809D01*
X146097857Y-73445714D02*
X146097857Y-74112380D01*
X146097857Y-73540952D02*
X146062142Y-73493333D01*
X145990714Y-73445714D01*
X145883571Y-73445714D01*
X145812142Y-73493333D01*
X145776428Y-73588571D01*
X145776428Y-74112380D01*
X145419285Y-74112380D02*
X145419285Y-73112380D01*
X145347857Y-73731428D02*
X145133571Y-74112380D01*
X145133571Y-73445714D02*
X145419285Y-73826666D01*
X144847857Y-74064761D02*
X144776428Y-74112380D01*
X144633571Y-74112380D01*
X144562142Y-74064761D01*
X144526428Y-73969523D01*
X144526428Y-73921904D01*
X144562142Y-73826666D01*
X144633571Y-73779047D01*
X144740714Y-73779047D01*
X144812142Y-73731428D01*
X144847857Y-73636190D01*
X144847857Y-73588571D01*
X144812142Y-73493333D01*
X144740714Y-73445714D01*
X144633571Y-73445714D01*
X144562142Y-73493333D01*
X143526428Y-74112380D02*
X143597857Y-74064761D01*
X143633571Y-74017142D01*
X143669285Y-73921904D01*
X143669285Y-73636190D01*
X143633571Y-73540952D01*
X143597857Y-73493333D01*
X143526428Y-73445714D01*
X143419285Y-73445714D01*
X143347857Y-73493333D01*
X143312142Y-73540952D01*
X143276428Y-73636190D01*
X143276428Y-73921904D01*
X143312142Y-74017142D01*
X143347857Y-74064761D01*
X143419285Y-74112380D01*
X143526428Y-74112380D01*
X143062142Y-73445714D02*
X142776428Y-73445714D01*
X142955000Y-74112380D02*
X142955000Y-73255238D01*
X142919285Y-73160000D01*
X142847857Y-73112380D01*
X142776428Y-73112380D01*
X141562142Y-74112380D02*
X141990714Y-74112380D01*
X141776428Y-74112380D02*
X141776428Y-73112380D01*
X141847857Y-73255238D01*
X141919285Y-73350476D01*
X141990714Y-73398095D01*
X140919285Y-73112380D02*
X141062142Y-73112380D01*
X141133571Y-73160000D01*
X141169285Y-73207619D01*
X141240714Y-73350476D01*
X141276428Y-73540952D01*
X141276428Y-73921904D01*
X141240714Y-74017142D01*
X141205000Y-74064761D01*
X141133571Y-74112380D01*
X140990714Y-74112380D01*
X140919285Y-74064761D01*
X140883571Y-74017142D01*
X140847857Y-73921904D01*
X140847857Y-73683809D01*
X140883571Y-73588571D01*
X140919285Y-73540952D01*
X140990714Y-73493333D01*
X141133571Y-73493333D01*
X141205000Y-73540952D01*
X141240714Y-73588571D01*
X141276428Y-73683809D01*
X140526428Y-74112380D02*
X140526428Y-73112380D01*
X140097857Y-74112380D02*
X140419285Y-73540952D01*
X140097857Y-73112380D02*
X140526428Y-73683809D01*
X139776428Y-74112380D02*
X139776428Y-73112380D01*
X139776428Y-73493333D02*
X139705000Y-73445714D01*
X139562142Y-73445714D01*
X139490714Y-73493333D01*
X139455000Y-73540952D01*
X139419285Y-73636190D01*
X139419285Y-73921904D01*
X139455000Y-74017142D01*
X139490714Y-74064761D01*
X139562142Y-74112380D01*
X139705000Y-74112380D01*
X139776428Y-74064761D01*
X139062142Y-74064761D02*
X139062142Y-74112380D01*
X139097857Y-74207619D01*
X139133571Y-74255238D01*
X138205000Y-73826666D02*
X137847857Y-73826666D01*
X138276428Y-74112380D02*
X138026428Y-73112380D01*
X137776428Y-74112380D01*
X137419285Y-74112380D02*
X137490714Y-74064761D01*
X137526428Y-73969523D01*
X137526428Y-73112380D01*
X137169285Y-74064761D02*
X137097857Y-74112380D01*
X136955000Y-74112380D01*
X136883571Y-74064761D01*
X136847857Y-73969523D01*
X136847857Y-73921904D01*
X136883571Y-73826666D01*
X136955000Y-73779047D01*
X137062142Y-73779047D01*
X137133571Y-73731428D01*
X137169285Y-73636190D01*
X137169285Y-73588571D01*
X137133571Y-73493333D01*
X137062142Y-73445714D01*
X136955000Y-73445714D01*
X136883571Y-73493333D01*
X136419285Y-74112380D02*
X136490714Y-74064761D01*
X136526428Y-74017142D01*
X136562142Y-73921904D01*
X136562142Y-73636190D01*
X136526428Y-73540952D01*
X136490714Y-73493333D01*
X136419285Y-73445714D01*
X136312142Y-73445714D01*
X136240714Y-73493333D01*
X136205000Y-73540952D01*
X136169285Y-73636190D01*
X136169285Y-73921904D01*
X136205000Y-74017142D01*
X136240714Y-74064761D01*
X136312142Y-74112380D01*
X136419285Y-74112380D01*
X134955000Y-74064761D02*
X135026428Y-74112380D01*
X135169285Y-74112380D01*
X135240714Y-74064761D01*
X135276428Y-74017142D01*
X135312142Y-73921904D01*
X135312142Y-73636190D01*
X135276428Y-73540952D01*
X135240714Y-73493333D01*
X135169285Y-73445714D01*
X135026428Y-73445714D01*
X134955000Y-73493333D01*
X134526428Y-74112380D02*
X134597857Y-74064761D01*
X134633571Y-74017142D01*
X134669285Y-73921904D01*
X134669285Y-73636190D01*
X134633571Y-73540952D01*
X134597857Y-73493333D01*
X134526428Y-73445714D01*
X134419285Y-73445714D01*
X134347857Y-73493333D01*
X134312142Y-73540952D01*
X134276428Y-73636190D01*
X134276428Y-73921904D01*
X134312142Y-74017142D01*
X134347857Y-74064761D01*
X134419285Y-74112380D01*
X134526428Y-74112380D01*
X133955000Y-74112380D02*
X133955000Y-73445714D01*
X133955000Y-73540952D02*
X133919285Y-73493333D01*
X133847857Y-73445714D01*
X133740714Y-73445714D01*
X133669285Y-73493333D01*
X133633571Y-73588571D01*
X133633571Y-74112380D01*
X133633571Y-73588571D02*
X133597857Y-73493333D01*
X133526428Y-73445714D01*
X133419285Y-73445714D01*
X133347857Y-73493333D01*
X133312142Y-73588571D01*
X133312142Y-74112380D01*
X132955000Y-73445714D02*
X132955000Y-74445714D01*
X132955000Y-73493333D02*
X132883571Y-73445714D01*
X132740714Y-73445714D01*
X132669285Y-73493333D01*
X132633571Y-73540952D01*
X132597857Y-73636190D01*
X132597857Y-73921904D01*
X132633571Y-74017142D01*
X132669285Y-74064761D01*
X132740714Y-74112380D01*
X132883571Y-74112380D01*
X132955000Y-74064761D01*
X131955000Y-74112380D02*
X131955000Y-73588571D01*
X131990714Y-73493333D01*
X132062142Y-73445714D01*
X132205000Y-73445714D01*
X132276428Y-73493333D01*
X131955000Y-74064761D02*
X132026428Y-74112380D01*
X132205000Y-74112380D01*
X132276428Y-74064761D01*
X132312142Y-73969523D01*
X132312142Y-73874285D01*
X132276428Y-73779047D01*
X132205000Y-73731428D01*
X132026428Y-73731428D01*
X131955000Y-73683809D01*
X131705000Y-73445714D02*
X131419285Y-73445714D01*
X131597857Y-73112380D02*
X131597857Y-73969523D01*
X131562142Y-74064761D01*
X131490714Y-74112380D01*
X131419285Y-74112380D01*
X131169285Y-74112380D02*
X131169285Y-73445714D01*
X131169285Y-73112380D02*
X131204999Y-73160000D01*
X131169285Y-73207619D01*
X131133571Y-73160000D01*
X131169285Y-73112380D01*
X131169285Y-73207619D01*
X130812142Y-74112380D02*
X130812142Y-73112380D01*
X130812142Y-73493333D02*
X130740714Y-73445714D01*
X130597857Y-73445714D01*
X130526428Y-73493333D01*
X130490714Y-73540952D01*
X130455000Y-73636190D01*
X130455000Y-73921904D01*
X130490714Y-74017142D01*
X130526428Y-74064761D01*
X130597857Y-74112380D01*
X130740714Y-74112380D01*
X130812142Y-74064761D01*
X130026428Y-74112380D02*
X130097857Y-74064761D01*
X130133571Y-73969523D01*
X130133571Y-73112380D01*
X129454999Y-74064761D02*
X129526428Y-74112380D01*
X129669285Y-74112380D01*
X129740714Y-74064761D01*
X129776428Y-73969523D01*
X129776428Y-73588571D01*
X129740714Y-73493333D01*
X129669285Y-73445714D01*
X129526428Y-73445714D01*
X129454999Y-73493333D01*
X129419285Y-73588571D01*
X129419285Y-73683809D01*
X129776428Y-73779047D01*
X128597857Y-73445714D02*
X128454999Y-74112380D01*
X128312142Y-73636190D01*
X128169285Y-74112380D01*
X128026428Y-73445714D01*
X127740714Y-74112380D02*
X127740714Y-73445714D01*
X127740714Y-73112380D02*
X127776428Y-73160000D01*
X127740714Y-73207619D01*
X127704999Y-73160000D01*
X127740714Y-73112380D01*
X127740714Y-73207619D01*
X127490714Y-73445714D02*
X127205000Y-73445714D01*
X127383571Y-73112380D02*
X127383571Y-73969523D01*
X127347857Y-74064761D01*
X127276428Y-74112380D01*
X127205000Y-74112380D01*
X126954999Y-74112380D02*
X126954999Y-73112380D01*
X126633571Y-74112380D02*
X126633571Y-73588571D01*
X126669285Y-73493333D01*
X126740714Y-73445714D01*
X126847857Y-73445714D01*
X126919285Y-73493333D01*
X126954999Y-73540952D01*
X125704999Y-74112380D02*
X125704999Y-73112380D01*
X125526428Y-73112380D01*
X125419285Y-73160000D01*
X125347857Y-73255238D01*
X125312142Y-73350476D01*
X125276428Y-73540952D01*
X125276428Y-73683809D01*
X125312142Y-73874285D01*
X125347857Y-73969523D01*
X125419285Y-74064761D01*
X125526428Y-74112380D01*
X125704999Y-74112380D01*
X124633571Y-74112380D02*
X124633571Y-73588571D01*
X124669285Y-73493333D01*
X124740714Y-73445714D01*
X124883571Y-73445714D01*
X124954999Y-73493333D01*
X124633571Y-74064761D02*
X124704999Y-74112380D01*
X124883571Y-74112380D01*
X124954999Y-74064761D01*
X124990714Y-73969523D01*
X124990714Y-73874285D01*
X124954999Y-73779047D01*
X124883571Y-73731428D01*
X124704999Y-73731428D01*
X124633571Y-73683809D01*
X124276428Y-73445714D02*
X124276428Y-74112380D01*
X124276428Y-73540952D02*
X124240714Y-73493333D01*
X124169285Y-73445714D01*
X124062142Y-73445714D01*
X123990714Y-73493333D01*
X123954999Y-73588571D01*
X123954999Y-74112380D01*
X123276428Y-74112380D02*
X123276428Y-73112380D01*
X123276428Y-74064761D02*
X123347857Y-74112380D01*
X123490714Y-74112380D01*
X123562142Y-74064761D01*
X123597857Y-74017142D01*
X123633571Y-73921904D01*
X123633571Y-73636190D01*
X123597857Y-73540952D01*
X123562142Y-73493333D01*
X123490714Y-73445714D01*
X123347857Y-73445714D01*
X123276428Y-73493333D01*
X122597857Y-74112380D02*
X122597857Y-73588571D01*
X122633571Y-73493333D01*
X122704999Y-73445714D01*
X122847857Y-73445714D01*
X122919285Y-73493333D01*
X122597857Y-74064761D02*
X122669285Y-74112380D01*
X122847857Y-74112380D01*
X122919285Y-74064761D01*
X122954999Y-73969523D01*
X122954999Y-73874285D01*
X122919285Y-73779047D01*
X122847857Y-73731428D01*
X122669285Y-73731428D01*
X122597857Y-73683809D01*
X122240714Y-73445714D02*
X122240714Y-74112380D01*
X122240714Y-73540952D02*
X122204999Y-73493333D01*
X122133571Y-73445714D01*
X122026428Y-73445714D01*
X121954999Y-73493333D01*
X121919285Y-73588571D01*
X121919285Y-74112380D01*
X121240714Y-74112380D02*
X121240714Y-73588571D01*
X121276428Y-73493333D01*
X121347857Y-73445714D01*
X121490714Y-73445714D01*
X121562142Y-73493333D01*
X121240714Y-74064761D02*
X121312142Y-74112380D01*
X121490714Y-74112380D01*
X121562142Y-74064761D01*
X121597857Y-73969523D01*
X121597857Y-73874285D01*
X121562142Y-73779047D01*
X121490714Y-73731428D01*
X121312142Y-73731428D01*
X121240714Y-73683809D01*
X120990714Y-73445714D02*
X120704999Y-73445714D01*
X120883571Y-73112380D02*
X120883571Y-73969523D01*
X120847857Y-74064761D01*
X120776428Y-74112380D01*
X120704999Y-74112380D01*
X120347857Y-74112380D02*
X120419285Y-74064761D01*
X120455000Y-74017142D01*
X120490714Y-73921904D01*
X120490714Y-73636190D01*
X120455000Y-73540952D01*
X120419285Y-73493333D01*
X120347857Y-73445714D01*
X120240714Y-73445714D01*
X120169285Y-73493333D01*
X120133571Y-73540952D01*
X120097857Y-73636190D01*
X120097857Y-73921904D01*
X120133571Y-74017142D01*
X120169285Y-74064761D01*
X120240714Y-74112380D01*
X120347857Y-74112380D01*
X119776428Y-74112380D02*
X119776428Y-73445714D01*
X119776428Y-73636190D02*
X119740714Y-73540952D01*
X119705000Y-73493333D01*
X119633571Y-73445714D01*
X119562142Y-73445714D01*
X118847857Y-73112380D02*
X118597857Y-74112380D01*
X118347857Y-73112380D01*
X117669285Y-74017142D02*
X117705000Y-74064761D01*
X117812142Y-74112380D01*
X117883571Y-74112380D01*
X117990714Y-74064761D01*
X118062142Y-73969523D01*
X118097857Y-73874285D01*
X118133571Y-73683809D01*
X118133571Y-73540952D01*
X118097857Y-73350476D01*
X118062142Y-73255238D01*
X117990714Y-73160000D01*
X117883571Y-73112380D01*
X117812142Y-73112380D01*
X117705000Y-73160000D01*
X117669285Y-73207619D01*
X116812142Y-73207619D02*
X116776428Y-73160000D01*
X116705000Y-73112380D01*
X116526428Y-73112380D01*
X116455000Y-73160000D01*
X116419285Y-73207619D01*
X116383571Y-73302857D01*
X116383571Y-73398095D01*
X116419285Y-73540952D01*
X116847857Y-74112380D01*
X116383571Y-74112380D01*
X116062142Y-74017142D02*
X116026428Y-74064761D01*
X116062142Y-74112380D01*
X116097857Y-74064761D01*
X116062142Y-74017142D01*
X116062142Y-74112380D01*
X115562142Y-73112380D02*
X115490714Y-73112380D01*
X115419285Y-73160000D01*
X115383571Y-73207619D01*
X115347857Y-73302857D01*
X115312142Y-73493333D01*
X115312142Y-73731428D01*
X115347857Y-73921904D01*
X115383571Y-74017142D01*
X115419285Y-74064761D01*
X115490714Y-74112380D01*
X115562142Y-74112380D01*
X115633571Y-74064761D01*
X115669285Y-74017142D01*
X115705000Y-73921904D01*
X115740714Y-73731428D01*
X115740714Y-73493333D01*
X115705000Y-73302857D01*
X115669285Y-73207619D01*
X115633571Y-73160000D01*
X115562142Y-73112380D01*
D11*
X149769523Y-52685000D02*
X149829047Y-52613571D01*
X149948095Y-52399285D01*
X150007619Y-52256428D01*
X150067142Y-52042142D01*
X150126666Y-51685000D01*
X150126666Y-51399285D01*
X150067142Y-51042142D01*
X150007619Y-50827857D01*
X149948095Y-50685000D01*
X149829047Y-50470714D01*
X149769523Y-50399285D01*
X148579047Y-51970714D02*
X148638571Y-52042142D01*
X148817142Y-52113571D01*
X148936190Y-52113571D01*
X149114761Y-52042142D01*
X149233809Y-51899285D01*
X149293333Y-51756428D01*
X149352857Y-51470714D01*
X149352857Y-51256428D01*
X149293333Y-50970714D01*
X149233809Y-50827857D01*
X149114761Y-50685000D01*
X148936190Y-50613571D01*
X148817142Y-50613571D01*
X148638571Y-50685000D01*
X148579047Y-50756428D01*
X148162380Y-52685000D02*
X148102857Y-52613571D01*
X147983809Y-52399285D01*
X147924285Y-52256428D01*
X147864761Y-52042142D01*
X147805238Y-51685000D01*
X147805238Y-51399285D01*
X147864761Y-51042142D01*
X147924285Y-50827857D01*
X147983809Y-50685000D01*
X148102857Y-50470714D01*
X148162380Y-50399285D01*
X146317142Y-50756428D02*
X146257619Y-50685000D01*
X146138571Y-50613571D01*
X145840952Y-50613571D01*
X145721904Y-50685000D01*
X145662380Y-50756428D01*
X145602857Y-50899285D01*
X145602857Y-51042142D01*
X145662380Y-51256428D01*
X146376666Y-52113571D01*
X145602857Y-52113571D01*
X144829047Y-50613571D02*
X144710000Y-50613571D01*
X144590952Y-50685000D01*
X144531428Y-50756428D01*
X144471904Y-50899285D01*
X144412380Y-51185000D01*
X144412380Y-51542142D01*
X144471904Y-51827857D01*
X144531428Y-51970714D01*
X144590952Y-52042142D01*
X144710000Y-52113571D01*
X144829047Y-52113571D01*
X144948095Y-52042142D01*
X145007619Y-51970714D01*
X145067142Y-51827857D01*
X145126666Y-51542142D01*
X145126666Y-51185000D01*
X145067142Y-50899285D01*
X145007619Y-50756428D01*
X144948095Y-50685000D01*
X144829047Y-50613571D01*
X143221904Y-52113571D02*
X143936190Y-52113571D01*
X143579047Y-52113571D02*
X143579047Y-50613571D01*
X143698095Y-50827857D01*
X143817142Y-50970714D01*
X143936190Y-51042142D01*
X142507619Y-51256428D02*
X142626666Y-51185000D01*
X142686190Y-51113571D01*
X142745714Y-50970714D01*
X142745714Y-50899285D01*
X142686190Y-50756428D01*
X142626666Y-50685000D01*
X142507619Y-50613571D01*
X142269523Y-50613571D01*
X142150476Y-50685000D01*
X142090952Y-50756428D01*
X142031428Y-50899285D01*
X142031428Y-50970714D01*
X142090952Y-51113571D01*
X142150476Y-51185000D01*
X142269523Y-51256428D01*
X142507619Y-51256428D01*
X142626666Y-51327857D01*
X142686190Y-51399285D01*
X142745714Y-51542142D01*
X142745714Y-51827857D01*
X142686190Y-51970714D01*
X142626666Y-52042142D01*
X142507619Y-52113571D01*
X142269523Y-52113571D01*
X142150476Y-52042142D01*
X142090952Y-51970714D01*
X142031428Y-51827857D01*
X142031428Y-51542142D01*
X142090952Y-51399285D01*
X142150476Y-51327857D01*
X142269523Y-51256428D01*
X140602857Y-51685000D02*
X140007619Y-51685000D01*
X140721904Y-52113571D02*
X140305238Y-50613571D01*
X139888571Y-52113571D01*
X139293333Y-52113571D02*
X139412380Y-52042142D01*
X139471904Y-51899285D01*
X139471904Y-50613571D01*
X138936190Y-51113571D02*
X138638571Y-52113571D01*
X138340952Y-51113571D01*
X137329047Y-52113571D02*
X137329047Y-51327857D01*
X137388571Y-51185000D01*
X137507619Y-51113571D01*
X137745714Y-51113571D01*
X137864761Y-51185000D01*
X137329047Y-52042142D02*
X137448095Y-52113571D01*
X137745714Y-52113571D01*
X137864761Y-52042142D01*
X137924285Y-51899285D01*
X137924285Y-51756428D01*
X137864761Y-51613571D01*
X137745714Y-51542142D01*
X137448095Y-51542142D01*
X137329047Y-51470714D01*
X136733809Y-52113571D02*
X136733809Y-51113571D01*
X136733809Y-51399285D02*
X136674285Y-51256428D01*
X136614761Y-51185000D01*
X136495714Y-51113571D01*
X136376666Y-51113571D01*
X135781428Y-52113571D02*
X135900476Y-52042142D01*
X135960000Y-51970714D01*
X136019523Y-51827857D01*
X136019523Y-51399285D01*
X135960000Y-51256428D01*
X135900476Y-51185000D01*
X135781428Y-51113571D01*
X135602857Y-51113571D01*
X135483809Y-51185000D01*
X135424285Y-51256428D01*
X135364761Y-51399285D01*
X135364761Y-51827857D01*
X135424285Y-51970714D01*
X135483809Y-52042142D01*
X135602857Y-52113571D01*
X135781428Y-52113571D01*
X133936190Y-51685000D02*
X133340952Y-51685000D01*
X134055238Y-52113571D02*
X133638571Y-50613571D01*
X133221904Y-52113571D01*
X132626666Y-52113571D02*
X132745714Y-52042142D01*
X132805238Y-51899285D01*
X132805238Y-50613571D01*
X131674285Y-52042142D02*
X131793333Y-52113571D01*
X132031428Y-52113571D01*
X132150476Y-52042142D01*
X132210000Y-51899285D01*
X132210000Y-51327857D01*
X132150476Y-51185000D01*
X132031428Y-51113571D01*
X131793333Y-51113571D01*
X131674285Y-51185000D01*
X131614761Y-51327857D01*
X131614761Y-51470714D01*
X132210000Y-51613571D01*
X130543333Y-52113571D02*
X130543333Y-51327857D01*
X130602857Y-51185000D01*
X130721904Y-51113571D01*
X130960000Y-51113571D01*
X131079047Y-51185000D01*
X130543333Y-52042142D02*
X130662380Y-52113571D01*
X130960000Y-52113571D01*
X131079047Y-52042142D01*
X131138571Y-51899285D01*
X131138571Y-51756428D01*
X131079047Y-51613571D01*
X130960000Y-51542142D01*
X130662380Y-51542142D01*
X130543333Y-51470714D01*
D12*
X114300000Y-74930000D02*
X149860000Y-74930000D01*
D13*
X141587857Y-56455357D02*
X140254523Y-56455357D01*
X141587857Y-58705357D01*
X140254523Y-58705357D01*
X139683095Y-56455357D02*
X138349761Y-58705357D01*
X138349761Y-56455357D02*
X139683095Y-58705357D01*
X136159285Y-58598214D02*
X135873571Y-58705357D01*
X135397380Y-58705357D01*
X135206904Y-58598214D01*
X135111666Y-58491071D01*
X135016428Y-58276785D01*
X135016428Y-58062500D01*
X135111666Y-57848214D01*
X135206904Y-57741071D01*
X135397380Y-57633928D01*
X135778333Y-57526785D01*
X135968809Y-57419642D01*
X136064047Y-57312500D01*
X136159285Y-57098214D01*
X136159285Y-56883928D01*
X136064047Y-56669642D01*
X135968809Y-56562500D01*
X135778333Y-56455357D01*
X135302142Y-56455357D01*
X135016428Y-56562500D01*
X134159285Y-57205357D02*
X134159285Y-59455357D01*
X134159285Y-57312500D02*
X133968809Y-57205357D01*
X133587857Y-57205357D01*
X133397380Y-57312500D01*
X133302142Y-57419642D01*
X133206904Y-57633928D01*
X133206904Y-58276785D01*
X133302142Y-58491071D01*
X133397380Y-58598214D01*
X133587857Y-58705357D01*
X133968809Y-58705357D01*
X134159285Y-58598214D01*
X131587857Y-58598214D02*
X131778333Y-58705357D01*
X132159285Y-58705357D01*
X132349761Y-58598214D01*
X132445000Y-58383928D01*
X132445000Y-57526785D01*
X132349761Y-57312500D01*
X132159285Y-57205357D01*
X131778333Y-57205357D01*
X131587857Y-57312500D01*
X131492619Y-57526785D01*
X131492619Y-57741071D01*
X132445000Y-57955357D01*
X129778333Y-58598214D02*
X129968809Y-58705357D01*
X130349761Y-58705357D01*
X130540238Y-58598214D01*
X130635476Y-58491071D01*
X130730714Y-58276785D01*
X130730714Y-57633928D01*
X130635476Y-57419642D01*
X130540238Y-57312500D01*
X130349761Y-57205357D01*
X129968809Y-57205357D01*
X129778333Y-57312500D01*
X129206904Y-57205357D02*
X128445000Y-57205357D01*
X128921190Y-56455357D02*
X128921190Y-58383928D01*
X128825952Y-58598214D01*
X128635476Y-58705357D01*
X128445000Y-58705357D01*
X127778333Y-58705357D02*
X127778333Y-57205357D01*
X127778333Y-57633928D02*
X127683095Y-57419642D01*
X127587857Y-57312500D01*
X127397380Y-57205357D01*
X127206904Y-57205357D01*
X125683095Y-57205357D02*
X125683095Y-58705357D01*
X126540238Y-57205357D02*
X126540238Y-58383928D01*
X126445000Y-58598214D01*
X126254523Y-58705357D01*
X125968809Y-58705357D01*
X125778333Y-58598214D01*
X125683095Y-58491071D01*
X124730714Y-58705357D02*
X124730714Y-57205357D01*
X124730714Y-57419642D02*
X124635476Y-57312500D01*
X124445000Y-57205357D01*
X124159285Y-57205357D01*
X123968809Y-57312500D01*
X123873571Y-57526785D01*
X123873571Y-58705357D01*
X123873571Y-57526785D02*
X123778333Y-57312500D01*
X123587857Y-57205357D01*
X123302142Y-57205357D01*
X123111666Y-57312500D01*
X123016428Y-57526785D01*
X123016428Y-58705357D01*
X140302142Y-62366071D02*
X140397380Y-62473214D01*
X140683095Y-62580357D01*
X140873571Y-62580357D01*
X141159285Y-62473214D01*
X141349761Y-62258928D01*
X141445000Y-62044642D01*
X141540238Y-61616071D01*
X141540238Y-61294642D01*
X141445000Y-60866071D01*
X141349761Y-60651785D01*
X141159285Y-60437500D01*
X140873571Y-60330357D01*
X140683095Y-60330357D01*
X140397380Y-60437500D01*
X140302142Y-60544642D01*
X138587857Y-62580357D02*
X138587857Y-61401785D01*
X138683095Y-61187500D01*
X138873571Y-61080357D01*
X139254523Y-61080357D01*
X139445000Y-61187500D01*
X138587857Y-62473214D02*
X138778333Y-62580357D01*
X139254523Y-62580357D01*
X139445000Y-62473214D01*
X139540238Y-62258928D01*
X139540238Y-62044642D01*
X139445000Y-61830357D01*
X139254523Y-61723214D01*
X138778333Y-61723214D01*
X138587857Y-61616071D01*
X137635476Y-62580357D02*
X137635476Y-61080357D01*
X137635476Y-61508928D02*
X137540238Y-61294642D01*
X137445000Y-61187500D01*
X137254523Y-61080357D01*
X137064047Y-61080357D01*
X136683095Y-61080357D02*
X135921190Y-61080357D01*
X136397380Y-60330357D02*
X136397380Y-62258928D01*
X136302142Y-62473214D01*
X136111666Y-62580357D01*
X135921190Y-62580357D01*
X135254523Y-62580357D02*
X135254523Y-61080357D01*
X135254523Y-61508928D02*
X135159285Y-61294642D01*
X135064047Y-61187500D01*
X134873571Y-61080357D01*
X134683095Y-61080357D01*
X134016428Y-62580357D02*
X134016428Y-61080357D01*
X134016428Y-60330357D02*
X134111666Y-60437500D01*
X134016428Y-60544642D01*
X133921190Y-60437500D01*
X134016428Y-60330357D01*
X134016428Y-60544642D01*
X132206904Y-62580357D02*
X132206904Y-60330357D01*
X132206904Y-62473214D02*
X132397380Y-62580357D01*
X132778333Y-62580357D01*
X132968809Y-62473214D01*
X133064047Y-62366071D01*
X133159285Y-62151785D01*
X133159285Y-61508928D01*
X133064047Y-61294642D01*
X132968809Y-61187500D01*
X132778333Y-61080357D01*
X132397380Y-61080357D01*
X132206904Y-61187500D01*
X130397380Y-61080357D02*
X130397380Y-62901785D01*
X130492619Y-63116071D01*
X130587857Y-63223214D01*
X130778333Y-63330357D01*
X131064047Y-63330357D01*
X131254523Y-63223214D01*
X130397380Y-62473214D02*
X130587857Y-62580357D01*
X130968809Y-62580357D01*
X131159285Y-62473214D01*
X131254523Y-62366071D01*
X131349761Y-62151785D01*
X131349761Y-61508928D01*
X131254523Y-61294642D01*
X131159285Y-61187500D01*
X130968809Y-61080357D01*
X130587857Y-61080357D01*
X130397380Y-61187500D01*
X128683095Y-62473214D02*
X128873571Y-62580357D01*
X129254523Y-62580357D01*
X129445000Y-62473214D01*
X129540238Y-62258928D01*
X129540238Y-61401785D01*
X129445000Y-61187500D01*
X129254523Y-61080357D01*
X128873571Y-61080357D01*
X128683095Y-61187500D01*
X128587857Y-61401785D01*
X128587857Y-61616071D01*
X129540238Y-61830357D01*
X126492619Y-61080357D02*
X125730714Y-61080357D01*
X126206904Y-62580357D02*
X126206904Y-60651785D01*
X126111666Y-60437500D01*
X125921190Y-60330357D01*
X125730714Y-60330357D01*
X124778333Y-62580357D02*
X124968809Y-62473214D01*
X125064047Y-62366071D01*
X125159285Y-62151785D01*
X125159285Y-61508928D01*
X125064047Y-61294642D01*
X124968809Y-61187500D01*
X124778333Y-61080357D01*
X124492619Y-61080357D01*
X124302142Y-61187500D01*
X124206904Y-61294642D01*
X124111666Y-61508928D01*
X124111666Y-62151785D01*
X124206904Y-62366071D01*
X124302142Y-62473214D01*
X124492619Y-62580357D01*
X124778333Y-62580357D01*
X123254523Y-62580357D02*
X123254523Y-61080357D01*
X123254523Y-61508928D02*
X123159285Y-61294642D01*
X123064047Y-61187500D01*
X122873571Y-61080357D01*
X122683095Y-61080357D01*
X145873571Y-66348214D02*
X145587857Y-66455357D01*
X145111666Y-66455357D01*
X144921190Y-66348214D01*
X144825952Y-66241071D01*
X144730714Y-66026785D01*
X144730714Y-65812500D01*
X144825952Y-65598214D01*
X144921190Y-65491071D01*
X145111666Y-65383928D01*
X145492619Y-65276785D01*
X145683095Y-65169642D01*
X145778333Y-65062500D01*
X145873571Y-64848214D01*
X145873571Y-64633928D01*
X145778333Y-64419642D01*
X145683095Y-64312500D01*
X145492619Y-64205357D01*
X145016428Y-64205357D01*
X144730714Y-64312500D01*
X143873571Y-66455357D02*
X143873571Y-64955357D01*
X143873571Y-64205357D02*
X143968809Y-64312500D01*
X143873571Y-64419642D01*
X143778333Y-64312500D01*
X143873571Y-64205357D01*
X143873571Y-64419642D01*
X142921190Y-64955357D02*
X142921190Y-66455357D01*
X142921190Y-65169642D02*
X142825952Y-65062500D01*
X142635476Y-64955357D01*
X142349761Y-64955357D01*
X142159285Y-65062500D01*
X142064047Y-65276785D01*
X142064047Y-66455357D01*
X140254523Y-66348214D02*
X140445000Y-66455357D01*
X140825952Y-66455357D01*
X141016428Y-66348214D01*
X141111666Y-66241071D01*
X141206904Y-66026785D01*
X141206904Y-65383928D01*
X141111666Y-65169642D01*
X141016428Y-65062500D01*
X140825952Y-64955357D01*
X140445000Y-64955357D01*
X140254523Y-65062500D01*
X139111666Y-66455357D02*
X139302142Y-66348214D01*
X139397380Y-66133928D01*
X139397380Y-64205357D01*
X137492619Y-66455357D02*
X137492619Y-65276785D01*
X137587857Y-65062500D01*
X137778333Y-64955357D01*
X138159285Y-64955357D01*
X138349761Y-65062500D01*
X137492619Y-66348214D02*
X137683095Y-66455357D01*
X138159285Y-66455357D01*
X138349761Y-66348214D01*
X138445000Y-66133928D01*
X138445000Y-65919642D01*
X138349761Y-65705357D01*
X138159285Y-65598214D01*
X137683095Y-65598214D01*
X137492619Y-65491071D01*
X136540238Y-66455357D02*
X136540238Y-64955357D01*
X136540238Y-64205357D02*
X136635476Y-64312500D01*
X136540238Y-64419642D01*
X136445000Y-64312500D01*
X136540238Y-64205357D01*
X136540238Y-64419642D01*
X135587857Y-66455357D02*
X135587857Y-64955357D01*
X135587857Y-65383928D02*
X135492619Y-65169642D01*
X135397380Y-65062500D01*
X135206904Y-64955357D01*
X135016428Y-64955357D01*
X132825952Y-66455357D02*
X132825952Y-64205357D01*
X131873571Y-64955357D02*
X131873571Y-66455357D01*
X131873571Y-65169642D02*
X131778333Y-65062500D01*
X131587857Y-64955357D01*
X131302142Y-64955357D01*
X131111666Y-65062500D01*
X131016428Y-65276785D01*
X131016428Y-66455357D01*
X130349761Y-64955357D02*
X129587857Y-64955357D01*
X130064047Y-64205357D02*
X130064047Y-66133928D01*
X129968809Y-66348214D01*
X129778333Y-66455357D01*
X129587857Y-66455357D01*
X128159285Y-66348214D02*
X128349761Y-66455357D01*
X128730714Y-66455357D01*
X128921190Y-66348214D01*
X129016428Y-66133928D01*
X129016428Y-65276785D01*
X128921190Y-65062500D01*
X128730714Y-64955357D01*
X128349761Y-64955357D01*
X128159285Y-65062500D01*
X128064047Y-65276785D01*
X128064047Y-65491071D01*
X129016428Y-65705357D01*
X127206904Y-66455357D02*
X127206904Y-64955357D01*
X127206904Y-65383928D02*
X127111666Y-65169642D01*
X127016428Y-65062500D01*
X126825952Y-64955357D01*
X126635476Y-64955357D01*
X126254523Y-64955357D02*
X125492619Y-64955357D01*
X125968809Y-66455357D02*
X125968809Y-64526785D01*
X125873571Y-64312500D01*
X125683095Y-64205357D01*
X125492619Y-64205357D01*
X123968809Y-66455357D02*
X123968809Y-65276785D01*
X124064047Y-65062500D01*
X124254523Y-64955357D01*
X124635476Y-64955357D01*
X124825952Y-65062500D01*
X123968809Y-66348214D02*
X124159285Y-66455357D01*
X124635476Y-66455357D01*
X124825952Y-66348214D01*
X124921190Y-66133928D01*
X124921190Y-65919642D01*
X124825952Y-65705357D01*
X124635476Y-65598214D01*
X124159285Y-65598214D01*
X123968809Y-65491071D01*
X122159285Y-66348214D02*
X122349761Y-66455357D01*
X122730714Y-66455357D01*
X122921190Y-66348214D01*
X123016428Y-66241071D01*
X123111666Y-66026785D01*
X123111666Y-65383928D01*
X123016428Y-65169642D01*
X122921190Y-65062500D01*
X122730714Y-64955357D01*
X122349761Y-64955357D01*
X122159285Y-65062500D01*
X120540238Y-66348214D02*
X120730714Y-66455357D01*
X121111666Y-66455357D01*
X121302142Y-66348214D01*
X121397380Y-66133928D01*
X121397380Y-65276785D01*
X121302142Y-65062500D01*
X121111666Y-64955357D01*
X120730714Y-64955357D01*
X120540238Y-65062500D01*
X120445000Y-65276785D01*
X120445000Y-65491071D01*
X121397380Y-65705357D01*
X118064047Y-66455357D02*
X118064047Y-64205357D01*
X117111666Y-66455357D02*
X117111666Y-64205357D01*
X137683095Y-70330357D02*
X138825952Y-70330357D01*
X138254523Y-70330357D02*
X138254523Y-68080357D01*
X138445000Y-68401785D01*
X138635476Y-68616071D01*
X138825952Y-68723214D01*
X135968809Y-68080357D02*
X136349761Y-68080357D01*
X136540238Y-68187500D01*
X136635476Y-68294642D01*
X136825952Y-68616071D01*
X136921190Y-69044642D01*
X136921190Y-69901785D01*
X136825952Y-70116071D01*
X136730714Y-70223214D01*
X136540238Y-70330357D01*
X136159285Y-70330357D01*
X135968809Y-70223214D01*
X135873571Y-70116071D01*
X135778333Y-69901785D01*
X135778333Y-69366071D01*
X135873571Y-69151785D01*
X135968809Y-69044642D01*
X136159285Y-68937500D01*
X136540238Y-68937500D01*
X136730714Y-69044642D01*
X136825952Y-69151785D01*
X136921190Y-69366071D01*
X134921190Y-70330357D02*
X134921190Y-68080357D01*
X133778333Y-70330357D02*
X134635476Y-69044642D01*
X133778333Y-68080357D02*
X134921190Y-69366071D01*
X132921190Y-70330357D02*
X132921190Y-68080357D01*
X132921190Y-68937500D02*
X132730714Y-68830357D01*
X132349761Y-68830357D01*
X132159285Y-68937500D01*
X132064047Y-69044642D01*
X131968809Y-69258928D01*
X131968809Y-69901785D01*
X132064047Y-70116071D01*
X132159285Y-70223214D01*
X132349761Y-70330357D01*
X132730714Y-70330357D01*
X132921190Y-70223214D01*
X128445000Y-70330357D02*
X129111666Y-69258928D01*
X129587857Y-70330357D02*
X129587857Y-68080357D01*
X128825952Y-68080357D01*
X128635476Y-68187500D01*
X128540238Y-68294642D01*
X128445000Y-68508928D01*
X128445000Y-68830357D01*
X128540238Y-69044642D01*
X128635476Y-69151785D01*
X128825952Y-69258928D01*
X129587857Y-69258928D01*
X127206904Y-68080357D02*
X126825952Y-68080357D01*
X126635476Y-68187500D01*
X126445000Y-68401785D01*
X126349761Y-68830357D01*
X126349761Y-69580357D01*
X126445000Y-70008928D01*
X126635476Y-70223214D01*
X126825952Y-70330357D01*
X127206904Y-70330357D01*
X127397380Y-70223214D01*
X127587857Y-70008928D01*
X127683095Y-69580357D01*
X127683095Y-68830357D01*
X127587857Y-68401785D01*
X127397380Y-68187500D01*
X127206904Y-68080357D01*
X125492619Y-70330357D02*
X125492619Y-68080357D01*
X124825952Y-69687500D01*
X124159285Y-68080357D01*
X124159285Y-70330357D01*
M02*
