G04 #@! TF.GenerationSoftware,KiCad,Pcbnew,5.0.0-rc2-be01b52~65~ubuntu18.04.1*
G04 #@! TF.CreationDate,2018-06-11T23:06:02+04:00*
G04 #@! TF.ProjectId,interface2_cartridge,696E74657266616365325F6361727472,rev?*
G04 #@! TF.SameCoordinates,Original*
G04 #@! TF.FileFunction,Soldermask,Top*
G04 #@! TF.FilePolarity,Negative*
%FSLAX46Y46*%
G04 Gerber Fmt 4.6, Leading zero omitted, Abs format (unit mm)*
G04 Created by KiCad (PCBNEW 5.0.0-rc2-be01b52~65~ubuntu18.04.1) date Mon Jun 11 23:06:02 2018*
%MOMM*%
%LPD*%
G01*
G04 APERTURE LIST*
%ADD10C,0.150000*%
%ADD11R,1.800000X1.070000*%
%ADD12R,1.500000X0.500000*%
%ADD13C,0.100000*%
%ADD14C,1.000000*%
%ADD15R,1.500000X1.000000*%
%ADD16R,0.700000X1.925000*%
%ADD17R,1.925000X0.700000*%
%ADD18R,1.700000X1.700000*%
%ADD19O,2.100000X2.100000*%
%ADD20R,0.500000X1.500000*%
G04 APERTURE END LIST*
D10*
G04 #@! TO.C,J1*
G36*
X151130000Y-87630000D02*
X151130000Y-80010000D01*
X113030000Y-80010000D01*
X113030000Y-87630000D01*
X151130000Y-87630000D01*
G37*
X151130000Y-87630000D02*
X151130000Y-80010000D01*
X113030000Y-80010000D01*
X113030000Y-87630000D01*
X151130000Y-87630000D01*
G04 #@! TD*
D11*
G04 #@! TO.C,D1*
X141605000Y-68980000D03*
X141605000Y-71990000D03*
G04 #@! TD*
G04 #@! TO.C,D2*
X144780000Y-71990000D03*
X144780000Y-68980000D03*
G04 #@! TD*
G04 #@! TO.C,D3*
X147828000Y-69043500D03*
X147828000Y-72053500D03*
G04 #@! TD*
D12*
G04 #@! TO.C,JP14*
X134620000Y-52340000D03*
D13*
G36*
X134919009Y-51542407D02*
X134967545Y-51549606D01*
X135015142Y-51561529D01*
X135061342Y-51578059D01*
X135105698Y-51599038D01*
X135147785Y-51624264D01*
X135187197Y-51653494D01*
X135223553Y-51686446D01*
X135256505Y-51722802D01*
X135285735Y-51762214D01*
X135310961Y-51804301D01*
X135331940Y-51848657D01*
X135348470Y-51894857D01*
X135360393Y-51942454D01*
X135367592Y-51990990D01*
X135370000Y-52039999D01*
X135370000Y-52040001D01*
X135367592Y-52089010D01*
X135360393Y-52137546D01*
X135348470Y-52185143D01*
X135331940Y-52231343D01*
X135310961Y-52275699D01*
X135285735Y-52317786D01*
X135256505Y-52357198D01*
X135223553Y-52393554D01*
X135187197Y-52426506D01*
X135147785Y-52455736D01*
X135105698Y-52480962D01*
X135061342Y-52501941D01*
X135015142Y-52518471D01*
X134967545Y-52530394D01*
X134919009Y-52537593D01*
X134870000Y-52540001D01*
X134370000Y-52540001D01*
X134320991Y-52537593D01*
X134272455Y-52530394D01*
X134224858Y-52518471D01*
X134178658Y-52501941D01*
X134134302Y-52480962D01*
X134092215Y-52455736D01*
X134052803Y-52426506D01*
X134016447Y-52393554D01*
X133983495Y-52357198D01*
X133954265Y-52317786D01*
X133929039Y-52275699D01*
X133908060Y-52231343D01*
X133891530Y-52185143D01*
X133879607Y-52137546D01*
X133872408Y-52089010D01*
X133870000Y-52040001D01*
X133870000Y-52039999D01*
X133872408Y-51990990D01*
X133879607Y-51942454D01*
X133891530Y-51894857D01*
X133908060Y-51848657D01*
X133929039Y-51804301D01*
X133954265Y-51762214D01*
X133983495Y-51722802D01*
X134016447Y-51686446D01*
X134052803Y-51653494D01*
X134092215Y-51624264D01*
X134134302Y-51599038D01*
X134178658Y-51578059D01*
X134224858Y-51561529D01*
X134272455Y-51549606D01*
X134320991Y-51542407D01*
X134370000Y-51539999D01*
X134870000Y-51539999D01*
X134919009Y-51542407D01*
X134919009Y-51542407D01*
G37*
D14*
X134620000Y-52040000D03*
D15*
X134620000Y-53340000D03*
D12*
X134620000Y-54340000D03*
D13*
G36*
X134919009Y-54142407D02*
X134967545Y-54149606D01*
X135015142Y-54161529D01*
X135061342Y-54178059D01*
X135105698Y-54199038D01*
X135147785Y-54224264D01*
X135187197Y-54253494D01*
X135223553Y-54286446D01*
X135256505Y-54322802D01*
X135285735Y-54362214D01*
X135310961Y-54404301D01*
X135331940Y-54448657D01*
X135348470Y-54494857D01*
X135360393Y-54542454D01*
X135367592Y-54590990D01*
X135370000Y-54639999D01*
X135370000Y-54640001D01*
X135367592Y-54689010D01*
X135360393Y-54737546D01*
X135348470Y-54785143D01*
X135331940Y-54831343D01*
X135310961Y-54875699D01*
X135285735Y-54917786D01*
X135256505Y-54957198D01*
X135223553Y-54993554D01*
X135187197Y-55026506D01*
X135147785Y-55055736D01*
X135105698Y-55080962D01*
X135061342Y-55101941D01*
X135015142Y-55118471D01*
X134967545Y-55130394D01*
X134919009Y-55137593D01*
X134870000Y-55140001D01*
X134370000Y-55140001D01*
X134320991Y-55137593D01*
X134272455Y-55130394D01*
X134224858Y-55118471D01*
X134178658Y-55101941D01*
X134134302Y-55080962D01*
X134092215Y-55055736D01*
X134052803Y-55026506D01*
X134016447Y-54993554D01*
X133983495Y-54957198D01*
X133954265Y-54917786D01*
X133929039Y-54875699D01*
X133908060Y-54831343D01*
X133891530Y-54785143D01*
X133879607Y-54737546D01*
X133872408Y-54689010D01*
X133870000Y-54640001D01*
X133870000Y-54639999D01*
X133872408Y-54590990D01*
X133879607Y-54542454D01*
X133891530Y-54494857D01*
X133908060Y-54448657D01*
X133929039Y-54404301D01*
X133954265Y-54362214D01*
X133983495Y-54322802D01*
X134016447Y-54286446D01*
X134052803Y-54253494D01*
X134092215Y-54224264D01*
X134134302Y-54199038D01*
X134178658Y-54178059D01*
X134224858Y-54161529D01*
X134272455Y-54149606D01*
X134320991Y-54142407D01*
X134370000Y-54139999D01*
X134870000Y-54139999D01*
X134919009Y-54142407D01*
X134919009Y-54142407D01*
G37*
D14*
X134620000Y-54640000D03*
G04 #@! TD*
D13*
G04 #@! TO.C,JP15*
G36*
X138729009Y-54142407D02*
X138777545Y-54149606D01*
X138825142Y-54161529D01*
X138871342Y-54178059D01*
X138915698Y-54199038D01*
X138957785Y-54224264D01*
X138997197Y-54253494D01*
X139033553Y-54286446D01*
X139066505Y-54322802D01*
X139095735Y-54362214D01*
X139120961Y-54404301D01*
X139141940Y-54448657D01*
X139158470Y-54494857D01*
X139170393Y-54542454D01*
X139177592Y-54590990D01*
X139180000Y-54639999D01*
X139180000Y-54640001D01*
X139177592Y-54689010D01*
X139170393Y-54737546D01*
X139158470Y-54785143D01*
X139141940Y-54831343D01*
X139120961Y-54875699D01*
X139095735Y-54917786D01*
X139066505Y-54957198D01*
X139033553Y-54993554D01*
X138997197Y-55026506D01*
X138957785Y-55055736D01*
X138915698Y-55080962D01*
X138871342Y-55101941D01*
X138825142Y-55118471D01*
X138777545Y-55130394D01*
X138729009Y-55137593D01*
X138680000Y-55140001D01*
X138180000Y-55140001D01*
X138130991Y-55137593D01*
X138082455Y-55130394D01*
X138034858Y-55118471D01*
X137988658Y-55101941D01*
X137944302Y-55080962D01*
X137902215Y-55055736D01*
X137862803Y-55026506D01*
X137826447Y-54993554D01*
X137793495Y-54957198D01*
X137764265Y-54917786D01*
X137739039Y-54875699D01*
X137718060Y-54831343D01*
X137701530Y-54785143D01*
X137689607Y-54737546D01*
X137682408Y-54689010D01*
X137680000Y-54640001D01*
X137680000Y-54639999D01*
X137682408Y-54590990D01*
X137689607Y-54542454D01*
X137701530Y-54494857D01*
X137718060Y-54448657D01*
X137739039Y-54404301D01*
X137764265Y-54362214D01*
X137793495Y-54322802D01*
X137826447Y-54286446D01*
X137862803Y-54253494D01*
X137902215Y-54224264D01*
X137944302Y-54199038D01*
X137988658Y-54178059D01*
X138034858Y-54161529D01*
X138082455Y-54149606D01*
X138130991Y-54142407D01*
X138180000Y-54139999D01*
X138680000Y-54139999D01*
X138729009Y-54142407D01*
X138729009Y-54142407D01*
G37*
D14*
X138430000Y-54640000D03*
D12*
X138430000Y-54340000D03*
D15*
X138430000Y-53340000D03*
D13*
G36*
X138729009Y-51542407D02*
X138777545Y-51549606D01*
X138825142Y-51561529D01*
X138871342Y-51578059D01*
X138915698Y-51599038D01*
X138957785Y-51624264D01*
X138997197Y-51653494D01*
X139033553Y-51686446D01*
X139066505Y-51722802D01*
X139095735Y-51762214D01*
X139120961Y-51804301D01*
X139141940Y-51848657D01*
X139158470Y-51894857D01*
X139170393Y-51942454D01*
X139177592Y-51990990D01*
X139180000Y-52039999D01*
X139180000Y-52040001D01*
X139177592Y-52089010D01*
X139170393Y-52137546D01*
X139158470Y-52185143D01*
X139141940Y-52231343D01*
X139120961Y-52275699D01*
X139095735Y-52317786D01*
X139066505Y-52357198D01*
X139033553Y-52393554D01*
X138997197Y-52426506D01*
X138957785Y-52455736D01*
X138915698Y-52480962D01*
X138871342Y-52501941D01*
X138825142Y-52518471D01*
X138777545Y-52530394D01*
X138729009Y-52537593D01*
X138680000Y-52540001D01*
X138180000Y-52540001D01*
X138130991Y-52537593D01*
X138082455Y-52530394D01*
X138034858Y-52518471D01*
X137988658Y-52501941D01*
X137944302Y-52480962D01*
X137902215Y-52455736D01*
X137862803Y-52426506D01*
X137826447Y-52393554D01*
X137793495Y-52357198D01*
X137764265Y-52317786D01*
X137739039Y-52275699D01*
X137718060Y-52231343D01*
X137701530Y-52185143D01*
X137689607Y-52137546D01*
X137682408Y-52089010D01*
X137680000Y-52040001D01*
X137680000Y-52039999D01*
X137682408Y-51990990D01*
X137689607Y-51942454D01*
X137701530Y-51894857D01*
X137718060Y-51848657D01*
X137739039Y-51804301D01*
X137764265Y-51762214D01*
X137793495Y-51722802D01*
X137826447Y-51686446D01*
X137862803Y-51653494D01*
X137902215Y-51624264D01*
X137944302Y-51599038D01*
X137988658Y-51578059D01*
X138034858Y-51561529D01*
X138082455Y-51549606D01*
X138130991Y-51542407D01*
X138180000Y-51539999D01*
X138680000Y-51539999D01*
X138729009Y-51542407D01*
X138729009Y-51542407D01*
G37*
D14*
X138430000Y-52040000D03*
D12*
X138430000Y-52340000D03*
G04 #@! TD*
D13*
G04 #@! TO.C,JP16*
G36*
X142539009Y-54142407D02*
X142587545Y-54149606D01*
X142635142Y-54161529D01*
X142681342Y-54178059D01*
X142725698Y-54199038D01*
X142767785Y-54224264D01*
X142807197Y-54253494D01*
X142843553Y-54286446D01*
X142876505Y-54322802D01*
X142905735Y-54362214D01*
X142930961Y-54404301D01*
X142951940Y-54448657D01*
X142968470Y-54494857D01*
X142980393Y-54542454D01*
X142987592Y-54590990D01*
X142990000Y-54639999D01*
X142990000Y-54640001D01*
X142987592Y-54689010D01*
X142980393Y-54737546D01*
X142968470Y-54785143D01*
X142951940Y-54831343D01*
X142930961Y-54875699D01*
X142905735Y-54917786D01*
X142876505Y-54957198D01*
X142843553Y-54993554D01*
X142807197Y-55026506D01*
X142767785Y-55055736D01*
X142725698Y-55080962D01*
X142681342Y-55101941D01*
X142635142Y-55118471D01*
X142587545Y-55130394D01*
X142539009Y-55137593D01*
X142490000Y-55140001D01*
X141990000Y-55140001D01*
X141940991Y-55137593D01*
X141892455Y-55130394D01*
X141844858Y-55118471D01*
X141798658Y-55101941D01*
X141754302Y-55080962D01*
X141712215Y-55055736D01*
X141672803Y-55026506D01*
X141636447Y-54993554D01*
X141603495Y-54957198D01*
X141574265Y-54917786D01*
X141549039Y-54875699D01*
X141528060Y-54831343D01*
X141511530Y-54785143D01*
X141499607Y-54737546D01*
X141492408Y-54689010D01*
X141490000Y-54640001D01*
X141490000Y-54639999D01*
X141492408Y-54590990D01*
X141499607Y-54542454D01*
X141511530Y-54494857D01*
X141528060Y-54448657D01*
X141549039Y-54404301D01*
X141574265Y-54362214D01*
X141603495Y-54322802D01*
X141636447Y-54286446D01*
X141672803Y-54253494D01*
X141712215Y-54224264D01*
X141754302Y-54199038D01*
X141798658Y-54178059D01*
X141844858Y-54161529D01*
X141892455Y-54149606D01*
X141940991Y-54142407D01*
X141990000Y-54139999D01*
X142490000Y-54139999D01*
X142539009Y-54142407D01*
X142539009Y-54142407D01*
G37*
D14*
X142240000Y-54640000D03*
D12*
X142240000Y-54340000D03*
D15*
X142240000Y-53340000D03*
D13*
G36*
X142539009Y-51542407D02*
X142587545Y-51549606D01*
X142635142Y-51561529D01*
X142681342Y-51578059D01*
X142725698Y-51599038D01*
X142767785Y-51624264D01*
X142807197Y-51653494D01*
X142843553Y-51686446D01*
X142876505Y-51722802D01*
X142905735Y-51762214D01*
X142930961Y-51804301D01*
X142951940Y-51848657D01*
X142968470Y-51894857D01*
X142980393Y-51942454D01*
X142987592Y-51990990D01*
X142990000Y-52039999D01*
X142990000Y-52040001D01*
X142987592Y-52089010D01*
X142980393Y-52137546D01*
X142968470Y-52185143D01*
X142951940Y-52231343D01*
X142930961Y-52275699D01*
X142905735Y-52317786D01*
X142876505Y-52357198D01*
X142843553Y-52393554D01*
X142807197Y-52426506D01*
X142767785Y-52455736D01*
X142725698Y-52480962D01*
X142681342Y-52501941D01*
X142635142Y-52518471D01*
X142587545Y-52530394D01*
X142539009Y-52537593D01*
X142490000Y-52540001D01*
X141990000Y-52540001D01*
X141940991Y-52537593D01*
X141892455Y-52530394D01*
X141844858Y-52518471D01*
X141798658Y-52501941D01*
X141754302Y-52480962D01*
X141712215Y-52455736D01*
X141672803Y-52426506D01*
X141636447Y-52393554D01*
X141603495Y-52357198D01*
X141574265Y-52317786D01*
X141549039Y-52275699D01*
X141528060Y-52231343D01*
X141511530Y-52185143D01*
X141499607Y-52137546D01*
X141492408Y-52089010D01*
X141490000Y-52040001D01*
X141490000Y-52039999D01*
X141492408Y-51990990D01*
X141499607Y-51942454D01*
X141511530Y-51894857D01*
X141528060Y-51848657D01*
X141549039Y-51804301D01*
X141574265Y-51762214D01*
X141603495Y-51722802D01*
X141636447Y-51686446D01*
X141672803Y-51653494D01*
X141712215Y-51624264D01*
X141754302Y-51599038D01*
X141798658Y-51578059D01*
X141844858Y-51561529D01*
X141892455Y-51549606D01*
X141940991Y-51542407D01*
X141990000Y-51539999D01*
X142490000Y-51539999D01*
X142539009Y-51542407D01*
X142539009Y-51542407D01*
G37*
D14*
X142240000Y-52040000D03*
D12*
X142240000Y-52340000D03*
G04 #@! TD*
D11*
G04 #@! TO.C,R1*
X141605000Y-66910000D03*
X141605000Y-63900000D03*
G04 #@! TD*
D16*
G04 #@! TO.C,U1*
X128905000Y-59447500D03*
X127635000Y-59447500D03*
X126365000Y-59447500D03*
X125095000Y-59447500D03*
X130175000Y-59447500D03*
X131445000Y-59447500D03*
X132715000Y-59447500D03*
X133985000Y-59447500D03*
D17*
X124217500Y-61595000D03*
X124217500Y-62865000D03*
X124217500Y-64135000D03*
X124217500Y-65405000D03*
X124217500Y-66675000D03*
X124217500Y-67945000D03*
X124217500Y-69215000D03*
X124217500Y-70485000D03*
D16*
X125095000Y-72632500D03*
X126365000Y-72632500D03*
X127635000Y-72632500D03*
X128905000Y-72632500D03*
X130175000Y-72632500D03*
X131445000Y-72632500D03*
X132715000Y-72632500D03*
X133985000Y-72632500D03*
D17*
X134862500Y-70485000D03*
X134862500Y-69215000D03*
X134862500Y-67945000D03*
X134862500Y-66675000D03*
X134862500Y-65405000D03*
X134862500Y-64135000D03*
X134862500Y-62865000D03*
X134862500Y-61595000D03*
G04 #@! TD*
D18*
G04 #@! TO.C,J2*
X115570000Y-52070000D03*
D19*
X118110000Y-52070000D03*
X120650000Y-52070000D03*
X123190000Y-52070000D03*
X125730000Y-52070000D03*
G04 #@! TD*
D20*
G04 #@! TO.C,JPOE1*
X119710000Y-63500000D03*
X118910000Y-63500000D03*
D13*
G36*
X118709010Y-62752408D02*
X118757546Y-62759607D01*
X118805143Y-62771530D01*
X118851343Y-62788060D01*
X118895699Y-62809039D01*
X118937786Y-62834265D01*
X118977198Y-62863495D01*
X119013554Y-62896447D01*
X119046506Y-62932803D01*
X119075736Y-62972215D01*
X119100962Y-63014302D01*
X119121941Y-63058658D01*
X119138471Y-63104858D01*
X119150394Y-63152455D01*
X119157593Y-63200991D01*
X119160001Y-63250000D01*
X119160001Y-63750000D01*
X119157593Y-63799009D01*
X119150394Y-63847545D01*
X119138471Y-63895142D01*
X119121941Y-63941342D01*
X119100962Y-63985698D01*
X119075736Y-64027785D01*
X119046506Y-64067197D01*
X119013554Y-64103553D01*
X118977198Y-64136505D01*
X118937786Y-64165735D01*
X118895699Y-64190961D01*
X118851343Y-64211940D01*
X118805143Y-64228470D01*
X118757546Y-64240393D01*
X118709010Y-64247592D01*
X118660001Y-64250000D01*
X118659999Y-64250000D01*
X118610990Y-64247592D01*
X118562454Y-64240393D01*
X118514857Y-64228470D01*
X118468657Y-64211940D01*
X118424301Y-64190961D01*
X118382214Y-64165735D01*
X118342802Y-64136505D01*
X118306446Y-64103553D01*
X118273494Y-64067197D01*
X118244264Y-64027785D01*
X118219038Y-63985698D01*
X118198059Y-63941342D01*
X118181529Y-63895142D01*
X118169606Y-63847545D01*
X118162407Y-63799009D01*
X118159999Y-63750000D01*
X118159999Y-63250000D01*
X118162407Y-63200991D01*
X118169606Y-63152455D01*
X118181529Y-63104858D01*
X118198059Y-63058658D01*
X118219038Y-63014302D01*
X118244264Y-62972215D01*
X118273494Y-62932803D01*
X118306446Y-62896447D01*
X118342802Y-62863495D01*
X118382214Y-62834265D01*
X118424301Y-62809039D01*
X118468657Y-62788060D01*
X118514857Y-62771530D01*
X118562454Y-62759607D01*
X118610990Y-62752408D01*
X118659999Y-62750000D01*
X118660001Y-62750000D01*
X118709010Y-62752408D01*
X118709010Y-62752408D01*
G37*
D14*
X118660000Y-63500000D03*
D13*
G36*
X120009010Y-62752408D02*
X120057546Y-62759607D01*
X120105143Y-62771530D01*
X120151343Y-62788060D01*
X120195699Y-62809039D01*
X120237786Y-62834265D01*
X120277198Y-62863495D01*
X120313554Y-62896447D01*
X120346506Y-62932803D01*
X120375736Y-62972215D01*
X120400962Y-63014302D01*
X120421941Y-63058658D01*
X120438471Y-63104858D01*
X120450394Y-63152455D01*
X120457593Y-63200991D01*
X120460001Y-63250000D01*
X120460001Y-63750000D01*
X120457593Y-63799009D01*
X120450394Y-63847545D01*
X120438471Y-63895142D01*
X120421941Y-63941342D01*
X120400962Y-63985698D01*
X120375736Y-64027785D01*
X120346506Y-64067197D01*
X120313554Y-64103553D01*
X120277198Y-64136505D01*
X120237786Y-64165735D01*
X120195699Y-64190961D01*
X120151343Y-64211940D01*
X120105143Y-64228470D01*
X120057546Y-64240393D01*
X120009010Y-64247592D01*
X119960001Y-64250000D01*
X119959999Y-64250000D01*
X119910990Y-64247592D01*
X119862454Y-64240393D01*
X119814857Y-64228470D01*
X119768657Y-64211940D01*
X119724301Y-64190961D01*
X119682214Y-64165735D01*
X119642802Y-64136505D01*
X119606446Y-64103553D01*
X119573494Y-64067197D01*
X119544264Y-64027785D01*
X119519038Y-63985698D01*
X119498059Y-63941342D01*
X119481529Y-63895142D01*
X119469606Y-63847545D01*
X119462407Y-63799009D01*
X119459999Y-63750000D01*
X119459999Y-63250000D01*
X119462407Y-63200991D01*
X119469606Y-63152455D01*
X119481529Y-63104858D01*
X119498059Y-63058658D01*
X119519038Y-63014302D01*
X119544264Y-62972215D01*
X119573494Y-62932803D01*
X119606446Y-62896447D01*
X119642802Y-62863495D01*
X119682214Y-62834265D01*
X119724301Y-62809039D01*
X119768657Y-62788060D01*
X119814857Y-62771530D01*
X119862454Y-62759607D01*
X119910990Y-62752408D01*
X119959999Y-62750000D01*
X119960001Y-62750000D01*
X120009010Y-62752408D01*
X120009010Y-62752408D01*
G37*
D14*
X119960000Y-63500000D03*
G04 #@! TD*
D13*
G04 #@! TO.C,JPWR1*
G36*
X118779010Y-66562408D02*
X118827546Y-66569607D01*
X118875143Y-66581530D01*
X118921343Y-66598060D01*
X118965699Y-66619039D01*
X119007786Y-66644265D01*
X119047198Y-66673495D01*
X119083554Y-66706447D01*
X119116506Y-66742803D01*
X119145736Y-66782215D01*
X119170962Y-66824302D01*
X119191941Y-66868658D01*
X119208471Y-66914858D01*
X119220394Y-66962455D01*
X119227593Y-67010991D01*
X119230001Y-67060000D01*
X119230001Y-67560000D01*
X119227593Y-67609009D01*
X119220394Y-67657545D01*
X119208471Y-67705142D01*
X119191941Y-67751342D01*
X119170962Y-67795698D01*
X119145736Y-67837785D01*
X119116506Y-67877197D01*
X119083554Y-67913553D01*
X119047198Y-67946505D01*
X119007786Y-67975735D01*
X118965699Y-68000961D01*
X118921343Y-68021940D01*
X118875143Y-68038470D01*
X118827546Y-68050393D01*
X118779010Y-68057592D01*
X118730001Y-68060000D01*
X118729999Y-68060000D01*
X118680990Y-68057592D01*
X118632454Y-68050393D01*
X118584857Y-68038470D01*
X118538657Y-68021940D01*
X118494301Y-68000961D01*
X118452214Y-67975735D01*
X118412802Y-67946505D01*
X118376446Y-67913553D01*
X118343494Y-67877197D01*
X118314264Y-67837785D01*
X118289038Y-67795698D01*
X118268059Y-67751342D01*
X118251529Y-67705142D01*
X118239606Y-67657545D01*
X118232407Y-67609009D01*
X118229999Y-67560000D01*
X118229999Y-67060000D01*
X118232407Y-67010991D01*
X118239606Y-66962455D01*
X118251529Y-66914858D01*
X118268059Y-66868658D01*
X118289038Y-66824302D01*
X118314264Y-66782215D01*
X118343494Y-66742803D01*
X118376446Y-66706447D01*
X118412802Y-66673495D01*
X118452214Y-66644265D01*
X118494301Y-66619039D01*
X118538657Y-66598060D01*
X118584857Y-66581530D01*
X118632454Y-66569607D01*
X118680990Y-66562408D01*
X118729999Y-66560000D01*
X118730001Y-66560000D01*
X118779010Y-66562408D01*
X118779010Y-66562408D01*
G37*
D14*
X118730000Y-67310000D03*
D13*
G36*
X120079010Y-66562408D02*
X120127546Y-66569607D01*
X120175143Y-66581530D01*
X120221343Y-66598060D01*
X120265699Y-66619039D01*
X120307786Y-66644265D01*
X120347198Y-66673495D01*
X120383554Y-66706447D01*
X120416506Y-66742803D01*
X120445736Y-66782215D01*
X120470962Y-66824302D01*
X120491941Y-66868658D01*
X120508471Y-66914858D01*
X120520394Y-66962455D01*
X120527593Y-67010991D01*
X120530001Y-67060000D01*
X120530001Y-67560000D01*
X120527593Y-67609009D01*
X120520394Y-67657545D01*
X120508471Y-67705142D01*
X120491941Y-67751342D01*
X120470962Y-67795698D01*
X120445736Y-67837785D01*
X120416506Y-67877197D01*
X120383554Y-67913553D01*
X120347198Y-67946505D01*
X120307786Y-67975735D01*
X120265699Y-68000961D01*
X120221343Y-68021940D01*
X120175143Y-68038470D01*
X120127546Y-68050393D01*
X120079010Y-68057592D01*
X120030001Y-68060000D01*
X120029999Y-68060000D01*
X119980990Y-68057592D01*
X119932454Y-68050393D01*
X119884857Y-68038470D01*
X119838657Y-68021940D01*
X119794301Y-68000961D01*
X119752214Y-67975735D01*
X119712802Y-67946505D01*
X119676446Y-67913553D01*
X119643494Y-67877197D01*
X119614264Y-67837785D01*
X119589038Y-67795698D01*
X119568059Y-67751342D01*
X119551529Y-67705142D01*
X119539606Y-67657545D01*
X119532407Y-67609009D01*
X119529999Y-67560000D01*
X119529999Y-67060000D01*
X119532407Y-67010991D01*
X119539606Y-66962455D01*
X119551529Y-66914858D01*
X119568059Y-66868658D01*
X119589038Y-66824302D01*
X119614264Y-66782215D01*
X119643494Y-66742803D01*
X119676446Y-66706447D01*
X119712802Y-66673495D01*
X119752214Y-66644265D01*
X119794301Y-66619039D01*
X119838657Y-66598060D01*
X119884857Y-66581530D01*
X119932454Y-66569607D01*
X119980990Y-66562408D01*
X120029999Y-66560000D01*
X120030001Y-66560000D01*
X120079010Y-66562408D01*
X120079010Y-66562408D01*
G37*
D14*
X120030000Y-67310000D03*
D20*
X119780000Y-67310000D03*
X118980000Y-67310000D03*
G04 #@! TD*
D13*
G04 #@! TO.C,JPCE1*
G36*
X120079010Y-70372408D02*
X120127546Y-70379607D01*
X120175143Y-70391530D01*
X120221343Y-70408060D01*
X120265699Y-70429039D01*
X120307786Y-70454265D01*
X120347198Y-70483495D01*
X120383554Y-70516447D01*
X120416506Y-70552803D01*
X120445736Y-70592215D01*
X120470962Y-70634302D01*
X120491941Y-70678658D01*
X120508471Y-70724858D01*
X120520394Y-70772455D01*
X120527593Y-70820991D01*
X120530001Y-70870000D01*
X120530001Y-71370000D01*
X120527593Y-71419009D01*
X120520394Y-71467545D01*
X120508471Y-71515142D01*
X120491941Y-71561342D01*
X120470962Y-71605698D01*
X120445736Y-71647785D01*
X120416506Y-71687197D01*
X120383554Y-71723553D01*
X120347198Y-71756505D01*
X120307786Y-71785735D01*
X120265699Y-71810961D01*
X120221343Y-71831940D01*
X120175143Y-71848470D01*
X120127546Y-71860393D01*
X120079010Y-71867592D01*
X120030001Y-71870000D01*
X120029999Y-71870000D01*
X119980990Y-71867592D01*
X119932454Y-71860393D01*
X119884857Y-71848470D01*
X119838657Y-71831940D01*
X119794301Y-71810961D01*
X119752214Y-71785735D01*
X119712802Y-71756505D01*
X119676446Y-71723553D01*
X119643494Y-71687197D01*
X119614264Y-71647785D01*
X119589038Y-71605698D01*
X119568059Y-71561342D01*
X119551529Y-71515142D01*
X119539606Y-71467545D01*
X119532407Y-71419009D01*
X119529999Y-71370000D01*
X119529999Y-70870000D01*
X119532407Y-70820991D01*
X119539606Y-70772455D01*
X119551529Y-70724858D01*
X119568059Y-70678658D01*
X119589038Y-70634302D01*
X119614264Y-70592215D01*
X119643494Y-70552803D01*
X119676446Y-70516447D01*
X119712802Y-70483495D01*
X119752214Y-70454265D01*
X119794301Y-70429039D01*
X119838657Y-70408060D01*
X119884857Y-70391530D01*
X119932454Y-70379607D01*
X119980990Y-70372408D01*
X120029999Y-70370000D01*
X120030001Y-70370000D01*
X120079010Y-70372408D01*
X120079010Y-70372408D01*
G37*
D14*
X120030000Y-71120000D03*
D13*
G36*
X118779010Y-70372408D02*
X118827546Y-70379607D01*
X118875143Y-70391530D01*
X118921343Y-70408060D01*
X118965699Y-70429039D01*
X119007786Y-70454265D01*
X119047198Y-70483495D01*
X119083554Y-70516447D01*
X119116506Y-70552803D01*
X119145736Y-70592215D01*
X119170962Y-70634302D01*
X119191941Y-70678658D01*
X119208471Y-70724858D01*
X119220394Y-70772455D01*
X119227593Y-70820991D01*
X119230001Y-70870000D01*
X119230001Y-71370000D01*
X119227593Y-71419009D01*
X119220394Y-71467545D01*
X119208471Y-71515142D01*
X119191941Y-71561342D01*
X119170962Y-71605698D01*
X119145736Y-71647785D01*
X119116506Y-71687197D01*
X119083554Y-71723553D01*
X119047198Y-71756505D01*
X119007786Y-71785735D01*
X118965699Y-71810961D01*
X118921343Y-71831940D01*
X118875143Y-71848470D01*
X118827546Y-71860393D01*
X118779010Y-71867592D01*
X118730001Y-71870000D01*
X118729999Y-71870000D01*
X118680990Y-71867592D01*
X118632454Y-71860393D01*
X118584857Y-71848470D01*
X118538657Y-71831940D01*
X118494301Y-71810961D01*
X118452214Y-71785735D01*
X118412802Y-71756505D01*
X118376446Y-71723553D01*
X118343494Y-71687197D01*
X118314264Y-71647785D01*
X118289038Y-71605698D01*
X118268059Y-71561342D01*
X118251529Y-71515142D01*
X118239606Y-71467545D01*
X118232407Y-71419009D01*
X118229999Y-71370000D01*
X118229999Y-70870000D01*
X118232407Y-70820991D01*
X118239606Y-70772455D01*
X118251529Y-70724858D01*
X118268059Y-70678658D01*
X118289038Y-70634302D01*
X118314264Y-70592215D01*
X118343494Y-70552803D01*
X118376446Y-70516447D01*
X118412802Y-70483495D01*
X118452214Y-70454265D01*
X118494301Y-70429039D01*
X118538657Y-70408060D01*
X118584857Y-70391530D01*
X118632454Y-70379607D01*
X118680990Y-70372408D01*
X118729999Y-70370000D01*
X118730001Y-70370000D01*
X118779010Y-70372408D01*
X118779010Y-70372408D01*
G37*
D14*
X118730000Y-71120000D03*
D20*
X118980000Y-71120000D03*
X119780000Y-71120000D03*
G04 #@! TD*
M02*
